<svg width="500" height="500" viewBox="0 0 500 500" fill="none" xmlns="http://www.w3.org/2000/svg">
<g clip-path="url(#clip0_152_494)">
<path d="M409.13 103C384.25 46.2698 324.53 24.9098 277.41 62.9998C259.01 77.8598 247.53 101.51 225 111C203.86 119.9 177.08 117.28 154.22 122.1C105.54 132.3 40 171 45 230.63C47.19 256.75 64.81 285.76 73.52 310.2C83.52 338.32 89.52 373.5 115.99 390.31C161.37 419.17 216.11 395.58 256.99 372.31C278.99 359.8 291.1 352.11 314.79 356.4C336.72 360.4 356.47 374.4 377.9 357.79C393.99 345.32 395.32 320.05 408.83 305.21C424.05 288.49 439.48 287.28 447.39 262.15C456.98 231.66 442.85 212.61 433.3 185.37C423.75 158.13 420.85 129.69 409.13 103Z" fill="#F49225"/>
<g opacity="0.7">
<path d="M409.13 103C384.25 46.2698 324.53 24.9098 277.41 62.9998C259.01 77.8598 247.53 101.51 225 111C203.86 119.9 177.08 117.28 154.22 122.1C105.54 132.3 40 171 45 230.63C47.19 256.75 64.81 285.76 73.52 310.2C83.52 338.32 89.52 373.5 115.99 390.31C161.37 419.17 216.11 395.58 256.99 372.31C278.99 359.8 291.1 352.11 314.79 356.4C336.72 360.4 356.47 374.4 377.9 357.79C393.99 345.32 395.32 320.05 408.83 305.21C424.05 288.49 439.48 287.28 447.39 262.15C456.98 231.66 442.85 212.61 433.3 185.37C423.75 158.13 420.85 129.69 409.13 103Z" fill="white"/>
</g>
<path d="M219.81 437.68C305.182 437.68 374.39 433.368 374.39 428.05C374.39 422.731 305.182 418.42 219.81 418.42C134.438 418.42 65.23 422.731 65.23 428.05C65.23 433.368 134.438 437.68 219.81 437.68Z" fill="#F49225"/>
<path opacity="0.8" d="M219.81 437.68C305.182 437.68 374.39 433.368 374.39 428.05C374.39 422.731 305.182 418.42 219.81 418.42C134.438 418.42 65.23 422.731 65.23 428.05C65.23 433.368 134.438 437.68 219.81 437.68Z" fill="white"/>
<path d="M335.97 61.8599H180.54C169.809 61.8599 161.11 70.559 161.11 81.2899V409.43C161.11 420.161 169.809 428.86 180.54 428.86H335.97C346.701 428.86 355.4 420.161 355.4 409.43V81.2899C355.4 70.559 346.701 61.8599 335.97 61.8599Z" fill="#263238"/>
<path d="M346.76 102.16H169.74V388.56H346.76V102.16Z" fill="white" stroke="#263238" stroke-width="1.33739" stroke-miterlimit="10"/>
<path d="M285.386 218.132C300.371 203.147 300.371 178.853 285.386 163.868C270.402 148.884 246.108 148.884 231.123 163.868C216.139 178.853 216.139 203.147 231.123 218.132C246.107 233.116 270.402 233.116 285.386 218.132Z" fill="#F49225"/>
<path d="M308.63 370.55H207.89C207.663 370.551 207.439 370.507 207.229 370.422C207.019 370.336 206.828 370.209 206.667 370.049C206.507 369.89 206.379 369.7 206.292 369.49C206.205 369.281 206.16 369.056 206.16 368.83C206.159 368.602 206.203 368.377 206.289 368.166C206.375 367.956 206.503 367.764 206.664 367.603C206.825 367.442 207.016 367.315 207.226 367.229C207.437 367.142 207.662 367.098 207.89 367.1H308.63C308.857 367.1 309.081 367.144 309.291 367.232C309.5 367.319 309.69 367.446 309.85 367.607C310.01 367.768 310.136 367.958 310.222 368.168C310.308 368.378 310.351 368.603 310.35 368.83C310.35 369.286 310.169 369.723 309.846 370.046C309.524 370.368 309.086 370.55 308.63 370.55Z" fill="#F49225"/>
<path d="M311.91 250.94H204.6C202.385 250.94 200.59 252.735 200.59 254.95V267.6C200.59 269.815 202.385 271.61 204.6 271.61H311.91C314.125 271.61 315.92 269.815 315.92 267.6V254.95C315.92 252.735 314.125 250.94 311.91 250.94Z" fill="#F49225"/>
<path d="M311.91 289.6H204.6C202.385 289.6 200.59 291.395 200.59 293.61V306.26C200.59 308.475 202.385 310.27 204.6 310.27H311.91C314.125 310.27 315.92 308.475 315.92 306.26V293.61C315.92 291.395 314.125 289.6 311.91 289.6Z" fill="#F49225"/>
<path d="M277.36 210.14L266.07 203.64V198.27C267.705 196.292 268.889 193.982 269.54 191.5C269.929 191.638 270.338 191.709 270.75 191.71C272.15 191.71 273.04 187.37 273.19 184.27C274.82 180.82 272.6 178.8 272.6 178.8C272.6 178.8 273.52 177.88 274.13 174.19C274.74 170.5 271.98 172.04 269.83 168.66C267.68 165.28 266.14 161.6 259.08 161.6C257.135 161.536 255.215 162.059 253.571 163.1C251.926 164.142 250.633 165.654 249.86 167.44C248.103 167.446 246.352 167.651 244.64 168.05C242.48 168.66 241.87 175.73 243.71 178.5C244.534 180.014 244.973 181.707 244.99 183.43C244.5 182.83 243.99 182.67 243.71 184.03C243.1 187.1 245.56 191.4 245.56 191.4L246.83 191.04C247.47 193.692 248.704 196.165 250.44 198.27V203.64L239.15 210.14C237.832 210.901 236.736 211.996 235.975 213.314C235.213 214.632 234.811 216.128 234.81 217.65V221.37C241.525 226.557 249.77 229.371 258.255 229.371C266.74 229.371 274.985 226.557 281.7 221.37V217.65C281.701 216.127 281.3 214.631 280.538 213.312C279.776 211.994 278.68 210.9 277.36 210.14Z" fill="#263238"/>
<path d="M215.2 305.13C214.941 305.126 214.694 305.022 214.51 304.84C214.412 304.752 214.333 304.644 214.28 304.523C214.226 304.403 214.199 304.272 214.2 304.14C214.203 303.96 214.255 303.783 214.35 303.63L216.15 300.75L212.64 300.86C212.508 300.868 212.375 300.849 212.251 300.802C212.127 300.755 212.014 300.683 211.92 300.59C211.757 300.407 211.667 300.17 211.667 299.925C211.667 299.68 211.757 299.443 211.92 299.26C212.012 299.163 212.124 299.088 212.249 299.04C212.373 298.991 212.507 298.971 212.64 298.98L216.1 299.11L214.32 296.24C214.223 296.084 214.171 295.904 214.17 295.72C214.169 295.588 214.196 295.457 214.25 295.337C214.303 295.216 214.382 295.108 214.48 295.02C214.664 294.838 214.911 294.734 215.17 294.73C215.34 294.731 215.507 294.781 215.65 294.873C215.794 294.965 215.908 295.096 215.98 295.25L217.69 298.34L219.38 295.27C219.46 295.106 219.584 294.967 219.737 294.869C219.89 294.77 220.068 294.715 220.25 294.71C220.376 294.711 220.501 294.738 220.617 294.789C220.732 294.841 220.835 294.916 220.92 295.01C221.103 295.2 221.204 295.456 221.2 295.72C221.199 295.892 221.155 296.061 221.07 296.21L219.26 299.11L222.77 298.98C222.903 298.971 223.037 298.991 223.161 299.04C223.286 299.088 223.398 299.163 223.49 299.26C223.66 299.437 223.754 299.674 223.75 299.92C223.749 300.168 223.657 300.407 223.49 300.59C223.396 300.683 223.283 300.755 223.159 300.802C223.035 300.849 222.902 300.868 222.77 300.86L219.24 300.75L221 303.6C221.099 303.759 221.151 303.943 221.15 304.13C221.15 304.395 221.045 304.65 220.857 304.837C220.67 305.025 220.415 305.13 220.15 305.13C219.979 305.128 219.811 305.075 219.669 304.979C219.527 304.883 219.416 304.748 219.35 304.59L217.68 301.59L216.02 304.59C215.946 304.747 215.831 304.88 215.686 304.976C215.541 305.071 215.373 305.124 215.2 305.13Z" fill="#263238"/>
<path d="M231.42 305.13C231.161 305.126 230.914 305.022 230.73 304.84C230.632 304.752 230.553 304.644 230.5 304.523C230.446 304.403 230.419 304.272 230.42 304.14C230.423 303.96 230.475 303.783 230.57 303.63L232.37 300.75L228.87 300.86C228.736 300.866 228.603 300.845 228.478 300.799C228.352 300.753 228.237 300.681 228.14 300.59C228.007 300.453 227.919 300.279 227.886 300.091C227.854 299.904 227.878 299.71 227.957 299.536C228.036 299.363 228.165 299.217 228.328 299.118C228.491 299.018 228.68 298.97 228.87 298.98L232.32 299.11L230.54 296.24C230.443 296.084 230.391 295.904 230.39 295.72C230.389 295.588 230.416 295.457 230.47 295.337C230.523 295.216 230.602 295.108 230.7 295.02C230.884 294.838 231.131 294.734 231.39 294.73C231.56 294.731 231.727 294.781 231.87 294.873C232.014 294.965 232.128 295.096 232.2 295.25L233.91 298.34L235.6 295.27C235.68 295.106 235.804 294.967 235.957 294.869C236.11 294.77 236.288 294.715 236.47 294.71C236.597 294.709 236.722 294.736 236.837 294.788C236.953 294.839 237.056 294.915 237.14 295.01C237.233 295.103 237.306 295.214 237.356 295.336C237.406 295.458 237.431 295.588 237.43 295.72C237.426 295.893 237.378 296.061 237.29 296.21L235.48 299.11L239 299C239.132 298.991 239.264 299.012 239.387 299.06C239.509 299.108 239.62 299.184 239.71 299.28C239.88 299.457 239.974 299.694 239.97 299.94C239.969 300.188 239.877 300.427 239.71 300.61C239.618 300.703 239.507 300.775 239.384 300.822C239.262 300.868 239.131 300.888 239 300.88L235.46 300.77L237.22 303.62C237.319 303.779 237.371 303.963 237.37 304.15C237.37 304.415 237.265 304.67 237.077 304.857C236.89 305.045 236.635 305.15 236.37 305.15C236.199 305.148 236.031 305.095 235.889 304.999C235.747 304.903 235.636 304.768 235.57 304.61L233.9 301.61L232.24 304.61C232.164 304.763 232.047 304.892 231.902 304.984C231.758 305.076 231.591 305.126 231.42 305.13Z" fill="#263238"/>
<path d="M247.65 305.13C247.388 305.129 247.136 305.025 246.95 304.84C246.852 304.752 246.773 304.644 246.72 304.523C246.666 304.403 246.639 304.272 246.64 304.14C246.643 303.96 246.695 303.783 246.79 303.63L248.59 300.75L245.09 300.86C244.902 300.867 244.715 300.819 244.554 300.72C244.394 300.621 244.266 300.477 244.188 300.305C244.11 300.133 244.084 299.942 244.115 299.756C244.145 299.57 244.231 299.397 244.36 299.26C244.454 299.164 244.569 299.089 244.695 299.04C244.82 298.992 244.955 298.972 245.09 298.98L248.54 299.11L246.76 296.24C246.663 296.084 246.611 295.904 246.61 295.72C246.613 295.589 246.642 295.459 246.695 295.339C246.749 295.219 246.825 295.111 246.92 295.02C247.106 294.835 247.358 294.731 247.62 294.73C247.789 294.733 247.953 294.783 248.095 294.875C248.236 294.967 248.349 295.097 248.42 295.25L250.13 298.34L251.82 295.27C251.9 295.106 252.024 294.967 252.177 294.869C252.33 294.77 252.508 294.715 252.69 294.71C252.817 294.709 252.942 294.736 253.057 294.788C253.173 294.839 253.276 294.915 253.36 295.01C253.453 295.103 253.526 295.214 253.576 295.336C253.626 295.458 253.651 295.588 253.65 295.72C253.646 295.893 253.598 296.061 253.51 296.21L251.7 299.11L255.22 298.98C255.349 298.967 255.48 298.982 255.603 299.024C255.726 299.066 255.839 299.133 255.934 299.222C256.029 299.311 256.103 299.42 256.153 299.54C256.202 299.661 256.225 299.79 256.22 299.92C256.222 300.167 256.133 300.405 255.97 300.59C255.876 300.683 255.763 300.755 255.639 300.802C255.515 300.849 255.382 300.868 255.25 300.86L251.72 300.75L253.47 303.6C253.569 303.759 253.621 303.943 253.62 304.13C253.617 304.261 253.588 304.391 253.535 304.511C253.481 304.631 253.405 304.739 253.31 304.83C253.223 304.924 253.118 304.998 253.001 305.05C252.884 305.102 252.758 305.129 252.63 305.13C252.46 305.127 252.294 305.074 252.154 304.978C252.014 304.882 251.904 304.747 251.84 304.59L250.16 301.59L248.5 304.59C248.425 304.752 248.305 304.889 248.154 304.985C248.004 305.081 247.829 305.131 247.65 305.13Z" fill="#263238"/>
<path d="M263.87 305.13C263.608 305.129 263.356 305.025 263.17 304.84C262.982 304.655 262.874 304.404 262.87 304.14C262.867 303.96 262.915 303.783 263.01 303.63L264.81 300.75L261.31 300.86C261.176 300.866 261.043 300.845 260.918 300.799C260.792 300.753 260.677 300.681 260.58 300.59C260.417 300.407 260.327 300.17 260.327 299.925C260.327 299.68 260.417 299.443 260.58 299.26C260.677 299.167 260.791 299.094 260.917 299.046C261.042 298.998 261.176 298.975 261.31 298.98L264.77 299.11L263 296.24C262.903 296.084 262.851 295.904 262.85 295.72C262.853 295.589 262.882 295.459 262.935 295.339C262.989 295.219 263.065 295.111 263.16 295.02C263.346 294.835 263.598 294.731 263.86 294.73C264.03 294.731 264.197 294.781 264.34 294.873C264.484 294.965 264.598 295.096 264.67 295.25L266.37 298.34L268.06 295.27C268.14 295.106 268.264 294.967 268.417 294.869C268.57 294.77 268.748 294.715 268.93 294.71C269.057 294.709 269.182 294.736 269.297 294.788C269.413 294.839 269.516 294.915 269.6 295.01C269.693 295.103 269.766 295.214 269.816 295.336C269.866 295.458 269.891 295.588 269.89 295.72C269.886 295.893 269.838 296.061 269.75 296.21L267.94 299.11L271.46 298.98C271.589 298.967 271.72 298.982 271.843 299.024C271.966 299.066 272.079 299.133 272.174 299.222C272.269 299.311 272.343 299.42 272.393 299.54C272.442 299.661 272.465 299.79 272.46 299.92C272.462 300.167 272.373 300.405 272.21 300.59C272.116 300.683 272.003 300.755 271.879 300.802C271.755 300.849 271.622 300.868 271.49 300.86L267.96 300.75L269.71 303.6C269.809 303.759 269.861 303.943 269.86 304.13C269.861 304.262 269.834 304.393 269.78 304.513C269.727 304.634 269.648 304.742 269.55 304.83C269.463 304.924 269.358 304.998 269.241 305.05C269.124 305.102 268.998 305.129 268.87 305.13C268.7 305.127 268.534 305.074 268.394 304.978C268.254 304.882 268.144 304.747 268.08 304.59L266.4 301.59L264.74 304.59C264.664 304.755 264.541 304.894 264.386 304.99C264.231 305.086 264.052 305.135 263.87 305.13Z" fill="#263238"/>
<path d="M280.09 305.13C279.828 305.129 279.576 305.025 279.39 304.84C279.235 304.683 279.136 304.479 279.109 304.26C279.082 304.042 279.128 303.82 279.24 303.63L281.03 300.75L277.53 300.86C277.396 300.866 277.263 300.845 277.138 300.799C277.012 300.753 276.897 300.681 276.8 300.59C276.637 300.407 276.547 300.17 276.547 299.925C276.547 299.68 276.637 299.443 276.8 299.26C276.897 299.167 277.011 299.094 277.136 299.046C277.262 298.998 277.396 298.975 277.53 298.98L280.99 299.11L279.21 296.24C279.113 296.084 279.061 295.904 279.06 295.72C279.064 295.456 279.172 295.205 279.36 295.02C279.546 294.835 279.798 294.731 280.06 294.73C280.23 294.731 280.397 294.781 280.54 294.873C280.684 294.965 280.798 295.096 280.87 295.25L282.57 298.34L284.26 295.27C284.34 295.106 284.464 294.967 284.617 294.869C284.77 294.77 284.948 294.715 285.13 294.71C285.258 294.709 285.385 294.736 285.502 294.787C285.619 294.839 285.724 294.915 285.81 295.01C285.993 295.2 286.094 295.456 286.09 295.72C286.086 295.893 286.038 296.061 285.95 296.21L284.14 299.11L287.66 298.98C287.789 298.967 287.92 298.982 288.043 299.024C288.166 299.066 288.279 299.133 288.374 299.222C288.469 299.311 288.543 299.42 288.593 299.54C288.642 299.661 288.665 299.79 288.66 299.92C288.662 300.167 288.573 300.405 288.41 300.59C288.316 300.683 288.203 300.755 288.079 300.802C287.955 300.849 287.822 300.868 287.69 300.86L284.16 300.75L285.91 303.6C286.009 303.759 286.061 303.943 286.06 304.13C286.061 304.262 286.034 304.393 285.98 304.513C285.927 304.634 285.848 304.742 285.75 304.83C285.663 304.924 285.558 304.998 285.441 305.05C285.324 305.102 285.198 305.129 285.07 305.13C284.9 305.127 284.734 305.074 284.594 304.978C284.454 304.882 284.344 304.747 284.28 304.59L282.6 301.59L280.94 304.59C280.865 304.752 280.745 304.889 280.594 304.985C280.444 305.081 280.269 305.131 280.09 305.13Z" fill="#263238"/>
<path d="M296.31 305.13C296.051 305.126 295.804 305.022 295.62 304.84C295.522 304.752 295.443 304.644 295.39 304.523C295.336 304.403 295.309 304.272 295.31 304.14C295.313 303.96 295.365 303.783 295.46 303.63L297.25 300.75L293.75 300.86C293.621 300.87 293.492 300.853 293.37 300.81C293.248 300.767 293.137 300.699 293.043 300.61C292.949 300.522 292.874 300.415 292.824 300.296C292.773 300.177 292.748 300.049 292.75 299.92C292.749 299.798 292.773 299.676 292.819 299.563C292.866 299.45 292.934 299.347 293.02 299.26C293.112 299.163 293.224 299.088 293.349 299.04C293.473 298.991 293.607 298.971 293.74 298.98L297.2 299.11L295.42 296.24C295.323 296.084 295.271 295.904 295.27 295.72C295.274 295.456 295.382 295.205 295.57 295.02C295.756 294.835 296.008 294.731 296.27 294.73C296.44 294.731 296.607 294.781 296.75 294.873C296.894 294.965 297.008 295.096 297.08 295.25L298.78 298.34L300.48 295.27C300.559 295.108 300.681 294.97 300.833 294.871C300.984 294.773 301.159 294.717 301.34 294.71C301.468 294.709 301.595 294.736 301.712 294.787C301.829 294.839 301.934 294.915 302.02 295.01C302.203 295.2 302.304 295.456 302.3 295.72C302.299 295.892 302.255 296.061 302.17 296.21L300.36 299.11L303.87 298.98C304.003 298.971 304.137 298.991 304.261 299.04C304.386 299.088 304.498 299.163 304.59 299.26C304.76 299.437 304.854 299.674 304.85 299.92C304.849 300.168 304.757 300.407 304.59 300.59C304.496 300.683 304.383 300.755 304.259 300.802C304.135 300.849 304.002 300.868 303.87 300.86L300.34 300.75L302.09 303.6C302.189 303.759 302.241 303.943 302.24 304.13C302.236 304.394 302.128 304.645 301.94 304.83C301.758 305.016 301.51 305.124 301.25 305.13C301.08 305.127 300.914 305.074 300.774 304.978C300.634 304.882 300.524 304.747 300.46 304.59L298.78 301.59L297.12 304.59C297.048 304.746 296.934 304.879 296.791 304.974C296.648 305.07 296.482 305.124 296.31 305.13Z" fill="#263238"/>
<g style="mix-blend-mode:multiply">
<path d="M346.76 102.54H169.74V113.63H346.76V102.54Z" fill="#F49225"/>
</g>
<path d="M277.5 82.1096H239C238.305 82.1096 237.639 81.8336 237.147 81.3422C236.656 80.8509 236.38 80.1845 236.38 79.4896C236.38 78.7948 236.656 78.1284 237.147 77.637C237.639 77.1457 238.305 76.8696 239 76.8696H277.5C278.195 76.8696 278.861 77.1457 279.353 77.637C279.844 78.1284 280.12 78.7948 280.12 79.4896C280.12 80.1845 279.844 80.8509 279.353 81.3422C278.861 81.8336 278.195 82.1096 277.5 82.1096Z" fill="#F49225" stroke="#263238" stroke-width="1.33739" stroke-linecap="round" stroke-linejoin="round"/>
<path d="M268.75 404.74C268.752 402.662 268.138 400.631 266.985 398.903C265.832 397.174 264.192 395.827 262.273 395.031C260.354 394.235 258.242 394.026 256.204 394.431C254.166 394.836 252.294 395.836 250.825 397.305C249.356 398.774 248.356 400.646 247.951 402.684C247.546 404.722 247.755 406.834 248.551 408.753C249.347 410.672 250.694 412.312 252.423 413.465C254.151 414.618 256.182 415.232 258.26 415.23C261.041 415.227 263.708 414.121 265.675 412.155C267.641 410.188 268.747 407.521 268.75 404.74Z" fill="#F49225"/>
<path d="M263.58 399.42H252.94V410.06H263.58V399.42Z" fill="#F49225" stroke="#263238" stroke-width="1.33739" stroke-linecap="round" stroke-linejoin="round"/>
<path d="M122.68 213.83L89.75 203.08L86.82 195.34L80.13 195.13L67.99 192.83L69.45 195.34L84.73 206.43L88.5 208.31L122.94 226.3L122.68 213.83Z" fill="white" stroke="#263238" stroke-width="1.00396" stroke-miterlimit="10"/>
<path d="M86.82 195.34L83.68 193.46L77.41 195.76L78.45 197.01L86.82 195.34Z" fill="white" stroke="#263238" stroke-width="1.00396" stroke-linejoin="round"/>
<path d="M122.68 213.83L89.75 203.08L86.82 195.34L80.13 195.13L67.99 192.83L69.45 195.34L84.73 206.43L88.5 208.31L122.94 226.3L122.68 213.83Z" fill="white"/>
<path opacity="0.5" d="M122.68 213.83L89.75 203.08L86.82 195.34L80.13 195.13L67.99 192.83L69.45 195.34L84.73 206.43L88.5 208.31L122.94 226.3L122.68 213.83Z" fill="#F49225" stroke="#263238" stroke-width="1.00396" stroke-miterlimit="10"/>
<path d="M122.68 213.83L89.75 203.08L86.82 195.34L80.13 195.13L67.99 192.83L69.45 195.34L84.73 206.43L88.5 208.31L122.94 226.3L122.68 213.83Z" stroke="#263238" stroke-width="1.00396" stroke-miterlimit="10"/>
<path d="M86.82 195.34L83.68 193.46L77.41 195.76L78.45 197.01L86.82 195.34Z" fill="white"/>
<path opacity="0.5" d="M86.82 195.34L83.68 193.46L77.41 195.76L78.45 197.01L86.82 195.34Z" fill="#F49225" stroke="#263238" stroke-width="1.00396" stroke-linejoin="round"/>
<path d="M86.82 195.34L83.68 193.46L77.41 195.76L78.45 197.01L86.82 195.34Z" stroke="#263238" stroke-width="1.00396" stroke-linejoin="round"/>
<path d="M129.67 144.06C129.67 144.06 129.16 148.56 130.43 151.45C131.7 154.34 138.75 164.13 138.75 164.13L125.59 174.68C125.59 174.68 120.13 163.68 119.09 161.9C118.05 160.12 116.8 152.46 120.19 146.97C123.58 141.48 128.46 140 129.67 144.06Z" fill="white"/>
<g style="mix-blend-mode:multiply" opacity="0.5">
<path d="M122.91 158.52L128.62 170.36L125.58 174.69L119.84 164.44L122.91 158.52Z" fill="#F49225"/>
</g>
<path d="M129.67 144.06C129.67 144.06 129.16 148.56 130.43 151.45C131.7 154.34 138.75 164.13 138.75 164.13L125.59 174.68C125.59 174.68 120.13 163.68 119.09 161.9C118.05 160.12 116.8 152.46 120.19 146.97C123.58 141.48 128.46 140 129.67 144.06Z" stroke="#263238" stroke-width="1.00396" stroke-miterlimit="10"/>
<path d="M133.75 135.82C132.94 130.82 127.21 120.65 118.12 121.04C112.22 121.3 109.46 122.49 106.9 123.94C104.813 125.169 102.868 126.625 101.1 128.28C96.66 133.61 95.1 135.07 95.96 139.15C95.8895 140.777 96.1444 142.402 96.71 143.93C98.07 147.56 99 149.93 100.18 151.66C99.82 153.35 98.88 157.81 98.83 158.83C98.78 159.85 101.83 159.14 103.37 158.75C106.23 165.15 111.47 169.59 113.1 170.1C115.94 170.99 120.43 166.32 122.81 162.7C125.19 159.08 123.39 155.01 123.4 153.39C123.41 151.77 128.75 148.21 130.73 147.08C132.71 145.95 134.55 140.81 133.75 135.82Z" fill="white"/>
<g style="mix-blend-mode:multiply" opacity="0.5">
<path d="M96 139.15C95.9295 140.777 96.1844 142.402 96.75 143.93C98.11 147.56 99.04 149.93 100.22 151.66C99.86 153.35 98.92 157.81 98.87 158.83C98.82 159.85 101.87 159.14 103.41 158.75C106.27 165.15 111.51 169.59 113.14 170.1C115.98 170.99 120.47 166.32 122.85 162.7C123.445 161.796 123.831 160.771 123.98 159.7C123.85 159.23 123.76 158.94 123.76 158.94C123.76 158.94 122.42 164.09 119.76 163.42C117.1 162.75 113.03 157.42 110.76 155.58C108.49 153.74 109.42 151.32 108.97 148.58C108.52 145.84 101.8 143.43 101.35 141.86C100.9 140.29 102.47 133.79 102.47 133.79C102.47 133.79 105.02 130.39 104.47 131.79C104.081 133.004 103.94 134.283 104.055 135.553C104.17 136.822 104.539 138.056 105.14 139.18C105.562 140.067 106.23 140.813 107.066 141.33C107.901 141.846 108.868 142.11 109.85 142.09L112.29 130L107.14 125.74L101.14 128.24C96.66 133.61 95.13 135.07 96 139.15Z" fill="#F49225"/>
</g>
<path d="M133.75 135.82C132.94 130.82 127.21 120.65 118.12 121.04C112.22 121.3 109.46 122.49 106.9 123.94C104.813 125.169 102.868 126.625 101.1 128.28C96.66 133.61 95.1 135.07 95.96 139.15C95.8895 140.777 96.1444 142.402 96.71 143.93C98.07 147.56 99 149.93 100.18 151.66C99.82 153.35 98.88 157.81 98.83 158.83C98.78 159.85 101.83 159.14 103.37 158.75C106.23 165.15 111.47 169.59 113.1 170.1C115.94 170.99 120.43 166.32 122.81 162.7C125.19 159.08 123.39 155.01 123.4 153.39C123.41 151.77 128.75 148.21 130.73 147.08C132.71 145.95 134.55 140.81 133.75 135.82Z" stroke="#263238" stroke-miterlimit="10"/>
<path d="M101.42 148.64L102.42 151.5C102.42 151.5 104.57 152.21 107.19 149.35" stroke="#263238" stroke-miterlimit="10" stroke-linecap="round"/>
<path d="M108.81 162C108.81 162 111.19 161.76 112.15 158.42" stroke="#263238" stroke-miterlimit="10" stroke-linecap="round"/>
<path d="M99.75 146.25C99.75 146.25 100.46 144.1 104.75 144.1" stroke="#263238" stroke-miterlimit="10" stroke-linecap="round"/>
<path d="M121.74 117.06C118.623 116.612 115.479 116.371 112.33 116.34C112.33 116.34 102.91 110.91 93.86 116.7C84.81 122.49 89.16 132.63 89.16 135.16C89.16 137.69 86.26 137.7 88.07 140.96C89.88 144.22 96 142.42 96 142.42C96.0647 141.19 96.3896 139.988 96.9533 138.894C97.517 137.799 98.3067 136.837 99.27 136.07C102.53 133.54 105.13 132.99 106.21 133.72C106.21 133.72 105.49 139.15 106.57 141.32C106.57 141.32 110.19 143.13 111.28 143.13C112.37 143.13 110.57 144.66 114.18 146.02C114.838 146.256 115.541 146.337 116.235 146.255C116.929 146.173 117.595 145.932 118.18 145.55C118.71 143.35 119.87 140.04 122.03 140.81C125.2 141.94 128.09 149.74 123.8 152.4C128.96 153.34 135.21 144.21 135.58 135.89C135.95 127.57 127.1 118 121.74 117.06Z" fill="#263238"/>
<path d="M106.37 130.15C106.37 130.15 109.03 128.72 112.29 131.78C115.55 134.84 121.89 138.93 130.29 136.68" stroke="white" stroke-width="0.5" stroke-linecap="round" stroke-linejoin="round"/>
<path d="M106 127.7C106 127.7 107.83 124.84 110.89 124.84C113.95 124.84 121.1 129.13 126.81 129.13" stroke="white" stroke-width="0.5" stroke-linecap="round" stroke-linejoin="round"/>
<path d="M103.92 133.21C103.92 133.21 100.45 128.93 97.19 132.4C93.93 135.87 96 139.15 96 139.15" stroke="white" stroke-width="0.5" stroke-linecap="round" stroke-linejoin="round"/>
<path d="M90.05 136.07C92.0385 134.277 93.2746 131.797 93.51 129.13C93.92 124.64 100.05 120.76 103.92 124.44" stroke="white" stroke-width="0.5" stroke-linecap="round" stroke-linejoin="round"/>
<path d="M96.37 119.74C96.37 119.74 102.5 113.82 107.6 121.37" stroke="white" stroke-width="0.5" stroke-linecap="round" stroke-linejoin="round"/>
<path d="M146.26 410.81C146.26 410.81 150.03 416.67 149.61 420.44L149.2 424.21C149.2 424.21 135.37 428 132.44 428C129.51 428 114 426.53 114 426.53L113.33 423.87C113.283 423.674 113.305 423.467 113.393 423.285C113.48 423.103 113.627 422.956 113.81 422.87L127.64 416.42L132 411.65L146.26 410.81Z" fill="white" stroke="#263238" stroke-width="1.00396" stroke-miterlimit="10"/>
<path d="M134.54 425.05C138.29 425.34 145.41 423.05 149.54 421.59L149.25 424.21C149.25 424.21 135.37 428 132.44 428C129.51 428 114 426.53 114 426.53L113.52 424.63C116 424.64 129.58 424.67 134.54 425.05Z" fill="#F49225" stroke="#263238" stroke-width="1.00396" stroke-miterlimit="10"/>
<path d="M127.66 416.42L107.53 425.18C107.53 425.18 105.81 429.49 107.53 430.35C109.25 431.21 146.75 430.35 146.75 430.35C146.75 430.35 149.34 423.54 145.25 418.97C141.16 414.4 127.66 416.42 127.66 416.42Z" fill="white" stroke="#263238" stroke-width="1.00396" stroke-miterlimit="10"/>
<path d="M146.75 430.35C146.75 430.35 109.25 431.21 107.53 430.35C106.7 429.93 106.67 428.72 106.86 427.57H147.41C147.278 428.515 147.057 429.446 146.75 430.35Z" fill="#F49225" stroke="#263238" stroke-width="1.00396" stroke-miterlimit="10"/>
<path d="M118.14 264.21C118.14 264.21 112.88 287.52 110.89 302.1C108.9 316.68 107.73 345.89 108.15 349.24C108.57 352.59 129.51 408.72 129.51 408.72L131.6 413.72L146.26 410.79C146.26 410.79 139.56 389.43 137.05 377.7C134.54 365.97 129.05 346.7 129.05 343.35C129.05 340 142.05 276.02 142.98 271.82C143.91 267.62 148.13 261.17 148.13 261.17L120.06 260.6L118.14 264.21Z" fill="#F49225" stroke="#263238" stroke-width="1.00396" stroke-miterlimit="10"/>
<path d="M118.14 264.21C118.14 264.21 115.06 285.5 116.33 300.3C117.6 315.1 120.33 346.61 120.33 351.3C120.33 355.99 127.9 384 128.33 392.8C129 405.51 128.06 411.8 128.06 411.8L127.61 416.41C127.61 416.41 136.44 417.67 138.37 418.22C140.599 418.794 142.9 419.043 145.2 418.96C145.2 418.96 148.41 404.83 148.41 392.79C148.41 380.75 145.74 355.97 144.41 345.93C143.08 335.89 147.27 297.16 149.65 289.93C152.03 282.7 157.23 267.39 153.73 259.57C150.23 251.75 118.14 264.21 118.14 264.21Z" fill="#F49225" stroke="#263238" stroke-width="1.00396" stroke-miterlimit="10"/>
<path d="M157.62 255.65L157.3 265.17C157.3 265.17 151.6 266.3 143.92 267.63C137.58 268.73 121.66 267.34 116.3 266.82C115.812 266.777 115.36 266.542 115.043 266.168C114.727 265.793 114.571 265.309 114.61 264.82L115.13 256.22L157.62 255.65Z" fill="#263238"/>
<path d="M135.34 160.75C135.34 160.75 126.34 170.48 122.95 176.53C119.56 182.58 118.22 191.85 116.95 199.15C115.68 206.45 119.12 223.59 118.15 231.46L115.08 256.25C115.08 256.25 114.42 257.93 116.63 259.77C118.84 261.61 129.63 262.28 139.38 262.77C142.94 262.95 153.57 260.66 155.31 260.55C157.41 260.42 157.48 257.75 157.57 255.65C157.99 245.78 159.77 219.47 160.94 208.01C163.35 184.64 150.16 162.08 135.34 160.75Z" fill="white" stroke="#263238" stroke-width="1.00396" stroke-miterlimit="10"/>
<g style="mix-blend-mode:multiply">
<path d="M159.84 221.3C160.24 216.11 160.64 211.4 160.99 208.01C161.09 207.01 161.15 206.01 161.2 205.01L137.29 209.01L116.75 202.01C116.752 206.26 116.993 210.507 117.47 214.73L137.62 220.37L159.84 221.3Z" fill="#F49225"/>
</g>
<g style="mix-blend-mode:multiply">
<path d="M134.45 161.73C133.09 163.24 130.39 166.31 127.82 169.57L143 185L148 183L134.45 161.73Z" fill="#F49225"/>
</g>
<path d="M135.34 160.75C135.34 160.75 126.34 170.48 122.95 176.53C121.945 178.369 121.131 180.305 120.52 182.31L138.62 161.4C137.551 161.076 136.452 160.858 135.34 160.75Z" fill="#263238"/>
<g style="mix-blend-mode:multiply">
<path d="M117.65 195.21L137.29 201.67L161.14 198.93C160.766 192.989 159.446 187.145 157.23 181.62L138 189.33L120.81 181.54C119.404 186.008 118.348 190.578 117.65 195.21Z" fill="#F49225"/>
</g>
<g style="mix-blend-mode:multiply">
<path d="M151.46 245.78C141.499 247.452 131.278 246.617 121.72 243.35L116.93 241.71L115.44 253.71L120.9 255.24C131.28 258.142 142.128 258.978 152.83 257.7L157.24 257.17C157.47 256.684 157.599 256.157 157.62 255.62C157.74 252.95 157.95 249.07 158.22 244.62L151.46 245.78Z" fill="#F49225"/>
</g>
<g style="mix-blend-mode:multiply">
<path d="M154.13 229.44C144.168 231.119 133.945 230.28 124.39 227L118.29 224.91C118.441 227.088 118.411 229.276 118.2 231.45L117.49 237.22L123.57 238.92C133.946 241.825 144.791 242.664 155.49 241.39L158.49 241.03C158.74 237.03 159.03 232.77 159.34 228.56L154.13 229.44Z" fill="#F49225"/>
</g>
<path d="M60.3112 187.152L79.6466 202.698L80.48 201.661L61.1446 186.115L60.3112 187.152Z" fill="#263238"/>
<path d="M144.65 171.54C144.65 171.54 151.74 176.37 151.9 187.78C151.97 192.78 151.45 197.45 150.3 205.64C149.15 213.83 142.01 240.5 136.45 243.74C130.89 246.98 122.26 240.86 122.26 240.86L80.52 213.15L70.43 205L65.43 195.56L67 192.56L79.31 202L72.68 195.87L73.98 194.22L76.38 195.89L83.38 198.51L84.91 208.51L87.07 209.99L127 224.58C127 224.58 126.5 203.09 126.87 198.98C127.24 194.87 127.75 184.54 132.15 177.05" fill="white"/>
<g style="mix-blend-mode:multiply" opacity="0.5">
<path d="M126.72 208.34C126.72 215.76 126.97 224.58 126.97 224.58L87.08 210.05L84.92 208.57L83.39 198.57L76.39 195.95L74 194.25L72.7 195.9L79.31 202L67 192.56L65.51 195.51L70.51 204.95L80.6 213.15L83.14 214.84L138.29 232.61L126.72 208.34Z" fill="#F49225"/>
</g>
<path d="M144.65 171.54C144.65 171.54 151.74 176.37 151.9 187.78C151.97 192.78 151.45 197.45 150.3 205.64C149.15 213.83 142.01 240.5 136.45 243.74C130.89 246.98 122.26 240.86 122.26 240.86L80.52 213.15L70.43 205L65.43 195.56L67 192.56L79.31 202L72.68 195.87L73.98 194.22L76.38 195.89L83.38 198.51L84.91 208.51L87.07 209.99L127 224.58C127 224.58 126.5 203.09 126.87 198.98C127.24 194.87 127.75 184.54 132.15 177.05" stroke="#263238" stroke-width="1.00396" stroke-miterlimit="10"/>
<path d="M127 224.58L142.24 235.58L146.19 228.58C146.19 228.58 148.92 226.43 149.32 224.81C149.72 223.19 149.21 220.56 149.62 218.94C150.03 217.32 152.07 215.8 152.26 211.88C152.45 207.96 152.26 204.69 152.26 204.69C152.26 204.69 155.56 191.12 155.2 185.22C154.84 179.32 149.15 168.89 144.59 168.66C140.03 168.43 134.1 169.12 129.5 176.08C124.9 183.04 125.84 203.36 125.12 204.63C124.4 205.9 125.4 212.17 125.4 212.17C125 212.468 124.669 212.848 124.427 213.284C124.186 213.72 124.04 214.203 124 214.7C123.92 216.33 125.68 220.34 125.68 220.34L127 224.58Z" fill="white" stroke="#263238" stroke-width="1.00396" stroke-miterlimit="10"/>
<g style="mix-blend-mode:multiply">
<path d="M125.52 199.41C125.551 201.155 125.421 202.899 125.13 204.62C124.49 205.76 125.22 210.91 125.38 211.96C133.952 214.622 143.016 215.306 151.89 213.96C152.081 213.264 152.195 212.55 152.23 211.83C152.43 207.92 152.23 204.64 152.23 204.64C152.23 204.64 152.52 203.43 152.92 201.59C143.729 202.174 134.503 201.44 125.52 199.41Z" fill="#F49225"/>
</g>
<g style="mix-blend-mode:multiply">
<path d="M128.88 177.19C127.45 180.06 126.65 184.37 126.19 188.74C135.268 192.205 145.056 193.396 154.7 192.21C155.085 189.897 155.256 187.554 155.21 185.21C155.037 183.357 154.599 181.539 153.91 179.81C145.489 180.006 137.078 179.126 128.88 177.19Z" fill="#F49225"/>
</g>
<path d="M125.68 220.45L126.97 224.58L142.21 235.58L146.16 228.58C146.16 228.58 148.89 226.43 149.29 224.81C149.361 224.528 149.405 224.24 149.42 223.95C141.389 223.811 133.409 222.635 125.68 220.45Z" fill="#263238"/>
<path d="M136.71 418.09C136.71 418.09 137.05 409.43 138.71 396.77C140.37 384.11 136.38 366.13 135.71 363.13C135.04 360.13 136.05 353.47 135.38 351.13C134.71 348.79 131.47 338.81 133.38 327.23C135.29 315.65 136.84 285.04 136.84 285.04C136.84 285.04 132.03 281.13 130.62 276.04C129.21 270.95 130.29 269.35 130.29 269.35" stroke="#263238" stroke-width="1.00396" stroke-miterlimit="10"/>
<path d="M138.94 269.82L137.09 280.06" stroke="#263238" stroke-width="1.00396" stroke-miterlimit="10"/>
</g>
<defs>
<clipPath id="clip0_152_494">
<rect width="500" height="500" fill="white"/>
</clipPath>
</defs>
</svg>
