<svg width="350" height="354" viewBox="0 0 350 354" fill="none" xmlns="http://www.w3.org/2000/svg">
<path d="M41.2236 334.958L32.6995 327.519C32.6995 327.519 29.4006 322.876 28.2887 321.193C27.1767 319.511 26.0361 313.883 26.0361 313.883L25.3003 305.836C25.2645 303.098 25.4794 300.363 25.9454 297.664C26.2247 295.269 29.7532 288.314 29.7532 288.314L175.63 112.165C175.63 112.165 172.453 100.188 172.106 93.1885C171.805 87.4854 171.811 81.7708 172.125 76.0678C172.389 72.3882 176.23 59.0748 177.333 55.9036C178.435 52.7337 185.345 40.4241 190.521 34.0179C195.696 27.6118 208.789 17.8124 210.659 16.7508C214.9 14.4279 219.288 12.3769 223.792 10.6135C227.424 9.38025 231.16 8.47889 234.954 7.91872C238.381 7.40333 242.419 7.13812 244.696 7.03301C246.974 6.92791 254.603 6.81898 254.603 6.81898L260.755 6.75775L264.19 7.43901L269.58 8.83281L231.006 54.5767L246.632 88.6947L246.642 88.7945L283.108 97.9493L321.265 51.837L323.665 56.8538L324.959 60.0989L326.009 66.1416C326.009 66.1416 327.298 73.6668 327.591 75.8947C327.884 78.1226 328.372 82.1937 328.48 85.6103C328.615 89.4332 328.4 93.2587 327.839 97.0417C326.914 101.779 325.686 106.452 324.161 111.031C323.453 113.069 316.155 127.693 310.77 133.901C305.384 140.11 294.433 149.156 291.509 150.848C288.585 152.541 276.136 158.614 272.56 159.602C266.992 160.942 261.355 161.982 255.675 162.716C248.708 163.644 236.319 162.693 236.319 162.693L88.9433 337.397C88.9433 337.397 82.719 342.115 80.4077 342.823C77.8292 343.767 75.1702 344.473 72.4631 344.934L64.3927 345.667C64.3927 345.667 58.6163 345.505 56.7743 344.779C54.9324 344.055 49.7383 341.598 49.7383 341.598L40.8573 334.585" fill="#40395F"/>
<path d="M41.2236 334.958L32.6995 327.519C32.6995 327.519 29.4006 322.876 28.2887 321.193C27.1767 319.511 26.0361 313.883 26.0361 313.883L25.3003 305.836C25.2645 303.098 25.4794 300.363 25.9454 297.664C26.2247 295.269 29.7532 288.314 29.7532 288.314L175.63 112.165C175.63 112.165 172.453 100.188 172.106 93.1885C171.805 87.4854 171.811 81.7708 172.125 76.0678C172.389 72.3882 176.23 59.0748 177.333 55.9036C178.435 52.7337 185.345 40.4241 190.521 34.0179C195.696 27.6118 208.789 17.8124 210.659 16.7508C214.9 14.4279 219.288 12.3769 223.792 10.6135C227.424 9.38025 231.16 8.47889 234.954 7.91872C238.381 7.40333 242.419 7.13812 244.696 7.03302C246.974 6.92791 254.603 6.81898 254.603 6.81898L260.755 6.75775L264.19 7.43901L269.58 8.83281L231.006 54.5767L246.632 88.6947L246.642 88.7945L283.108 97.9493L321.265 51.837L323.666 56.8538L324.959 60.0989L326.009 66.1416C326.009 66.1416 327.298 73.6668 327.591 75.8947C327.884 78.1226 328.372 82.1937 328.48 85.6103C328.615 89.4332 328.4 93.2587 327.839 97.0417C326.914 101.779 325.686 106.452 324.161 111.031C323.453 113.069 316.155 127.693 310.77 133.901C305.384 140.11 294.433 149.156 291.509 150.848C288.585 152.541 276.136 158.614 272.56 159.602C266.992 160.942 261.355 161.982 255.675 162.716C248.708 163.644 236.319 162.693 236.319 162.693L88.9433 337.397C88.9433 337.397 82.719 342.115 80.4077 342.823C77.8292 343.767 75.1702 344.473 72.4631 344.934L64.3927 345.667C64.3927 345.667 58.6163 345.505 56.7743 344.779C54.9324 344.055 49.7383 341.598 49.7383 341.598L40.8573 334.585" stroke="#40395F" stroke-width="7" stroke-miterlimit="10"/>
<path d="M17.5742 33.9515L10.2025 41.5725L28.9888 84.3132L52.6875 86.0993L213.323 247.784L192.966 267.707L265.652 341.936C265.652 341.936 270.703 346.091 273.354 347.079C276.003 348.067 278.994 349.362 281.397 349.511C283.801 349.659 296.027 349.642 296.027 349.642C298.519 349.074 300.921 348.164 303.163 346.941C305.486 345.621 307.665 344.068 309.668 342.306C311.168 341.051 314.917 337.279 314.917 337.279L315.919 336.273L316.009 336.173L317.037 335.192C317.037 335.192 320.887 331.51 322.172 330.05C323.975 328.084 325.571 325.939 326.936 323.649C328.204 321.435 329.16 319.058 329.774 316.584C329.774 316.584 330.011 304.395 329.906 301.997C329.8 299.598 328.504 296.567 327.612 293.934C326.72 291.3 322.593 286.163 322.593 286.163L249.47 212.362L229.125 232.298L69.9389 69.2562L68.5759 45.5351L26.0681 26.0362L18.2673 33.2727L17.5742 33.9515Z" stroke="#40395F" stroke-width="7" stroke-miterlimit="10"/>
<path d="M191.186 219.627L201.21 209.886L229.095 238.412L249.579 218.566L316.815 286.454L319.45 289.116L322.014 292.577L323.628 295.61L324.866 299.364L325.428 301.906L325.356 309.833L325.298 316.34L322.326 322.758L317.773 328.159L313.166 332.621L308.748 337.173L307.387 338.507L305.632 339.898L304.158 341.015L303.095 341.804L301.151 342.953L299.655 343.751L298.25 344.373L295.687 345.073L288.294 345.133L282.15 345.078L280.372 344.719L278.127 343.952L276.199 343.3L274.703 342.715L272.324 341.285L269.696 339.335L268.193 338.053L265.698 335.416L257.554 327.148L244.796 314.183L231.51 300.541L217.164 285.875L207.872 276.569L199.364 267.74L219.364 247.991L191.186 219.627Z" fill="#EC6C00"/>
<path d="M15.3721 42.507L32.0296 80.0784L54.6982 81.8171L184.257 212.03L194.241 202.543L65.5598 70.942L64.2877 48.4269L26.8726 31.3332L15.3721 42.507Z" fill="#666666"/>
</svg>
