<svg width="350" height="350" viewBox="0 0 350 350" fill="none" xmlns="http://www.w3.org/2000/svg">
<g opacity="0.6">
<path d="M193.669 0.0826679C192.699 0.0826679 191.628 0.197057 190.597 0.277116C170.082 1.88991 150.234 9.25613 132.852 21.7009C129.406 24.1944 126.071 26.8939 122.888 29.7992C113.54 38.2863 105.152 48.6608 100.715 61.2543C98.401 67.8541 97.2186 74.7971 95.8543 81.6715C92.1252 99.904 86.1425 118.731 73.207 130.387C57.0882 144.925 37.4929 149.912 23.476 168.179C9.63098 186.251 -0.0302452 207.115 7.11462e-05 231.524C7.11462e-05 292.306 46.3759 313.421 89.7807 328.657C141.119 346.752 195.731 355.045 249.282 346.81C271.969 343.309 294.95 336.572 313.403 321.337C341.114 298.552 354.433 256.745 348.683 218.919C345.773 199.725 340.639 182.385 339.244 162.666C337.435 136.952 341.255 110.599 334.595 85.4804C323.519 43.811 285.047 16.5766 248.889 8.84435C230.445 4.92105 212.688 -0.752317 193.669 0.0826679Z" fill="#3862F8"/>
</g>
<path d="M135.966 67.9216H204.241C212.022 67.9216 218.328 75.0591 218.328 83.8665V269.863C218.328 278.671 212.022 285.808 204.241 285.808H135.966C128.184 285.808 121.878 278.671 121.878 269.863V83.8665C121.878 75.0591 128.184 67.9216 135.966 67.9216Z" fill="#3862F8"/>
<path d="M137.401 70.6667H202.796C210.314 70.6667 216.418 77.564 216.418 86.0855V267.29C216.418 275.8 210.325 282.709 202.796 282.709H137.401C129.882 282.709 123.778 275.811 123.778 267.29V86.0855C123.778 77.564 129.882 70.6667 137.401 70.6667Z" fill="#473F47"/>
<path d="M213.912 88.0986V263.092C213.953 271.225 208.162 277.859 200.977 277.905H139.341C137.077 277.905 134.864 277.23 132.914 275.949C128.871 273.283 126.385 268.388 126.395 263.092V88.0986C126.365 79.9661 132.156 73.3319 139.351 73.2861H149.78V75.4937C149.811 78.3533 151.337 80.9154 153.671 82.0135C154.429 82.3566 155.237 82.5282 156.056 82.5282H184.696C188.162 82.5053 190.972 79.3141 190.962 75.3793V73.2861H201.047C204.382 73.2861 207.596 74.7617 209.991 77.4039C212.507 80.2177 213.932 84.0838 213.912 88.0986Z" fill="white"/>
<path d="M213.912 88.0986V140.154H126.355V88.0986C126.325 79.9546 132.125 73.3204 139.321 73.2861H139.341H149.79V75.4937C149.821 78.3533 151.347 80.9154 153.681 82.0135C154.439 82.3566 155.248 82.5282 156.066 82.5282H184.706C188.172 82.5053 190.982 79.3141 190.972 75.3793V73.2861H201.057C204.392 73.2861 207.606 74.7617 210.001 77.4039C212.518 80.2177 213.932 84.0838 213.912 88.0986Z" fill="#3862F8"/>
<g opacity="0.999992">
<path d="M176.207 121.338H201.148C202.402 121.338 203.422 122.493 203.422 123.912V123.992C203.422 125.41 202.402 126.565 201.148 126.565H176.207C174.954 126.565 173.933 125.41 173.933 123.992V123.912C173.933 122.493 174.954 121.338 176.207 121.338Z" fill="white"/>
</g>
<path d="M118.865 202.782C134.133 199.398 145.261 183.973 143.719 168.332C142.177 152.69 128.549 142.754 113.281 146.139C98.0128 149.523 86.8851 164.948 88.4271 180.589C89.969 196.231 103.597 206.167 118.865 202.782Z" fill="#F8C244"/>
<path d="M118.447 198.605C131.455 195.721 140.935 182.581 139.622 169.256C138.308 155.929 126.697 147.464 113.69 150.347C100.682 153.231 91.2002 166.373 92.514 179.699C93.8276 193.024 105.439 201.489 118.447 198.605Z" fill="#E8A825"/>
<path d="M124.946 186.236L122.294 183.679C120.809 185.321 118.956 186.539 116.955 187.21L115.85 184.782C117.745 184.197 119.5 183.069 120.902 181.533C122.868 179.36 123.104 176.873 121.608 175.428C120.113 173.982 118.208 174.35 115.426 175.822C111.577 177.907 108.645 178.66 106.369 176.458C104.187 174.351 104.161 170.965 106.288 167.784L103.641 165.227L105.344 163.338L107.879 165.798C109.143 164.423 110.685 163.369 112.363 162.737L113.451 165.183C111.808 165.76 110.31 166.782 109.104 168.145C106.987 170.487 107.409 172.528 108.449 173.542C109.817 174.852 111.512 174.393 114.835 172.671C118.778 170.599 121.521 170.346 123.876 172.6C125.947 174.602 126.376 178.158 124.006 181.713L126.727 184.357L124.946 186.236Z" fill="#F8C244"/>
<path d="M225.704 272.168C235.552 279.126 248.076 277.026 253.678 267.476C259.28 257.927 255.839 244.546 245.992 237.588C236.144 230.63 223.619 232.732 218.017 242.281C212.415 251.829 215.857 265.211 225.704 272.168Z" fill="#F8C244"/>
<path d="M227.211 269.6C235.6 275.528 246.271 273.739 251.043 265.603C255.816 257.468 252.884 246.066 244.494 240.139C236.105 234.211 225.434 236.001 220.662 244.136C215.889 252.272 218.821 263.673 227.211 269.6Z" fill="#E8A825"/>
<path d="M228.082 262.349L229.738 260.154C228.509 259.088 227.56 257.718 226.985 256.2L228.621 255.217C229.138 256.652 230.02 257.954 231.17 258.958C232.811 260.378 234.55 260.422 235.484 259.193C236.418 257.956 236.061 256.5 234.874 254.388C233.214 251.507 232.533 249.273 233.957 247.394C235.318 245.597 237.687 245.388 240.027 246.886L241.681 244.695L243.094 245.915L241.505 248.013C242.535 248.92 243.354 250.066 243.886 251.334L242.246 252.302C241.753 251.057 240.958 249.945 239.943 249.083C238.193 247.567 236.779 247.996 236.125 248.858C235.273 249.985 235.687 251.272 237.07 253.761C238.722 256.698 239.041 258.839 237.597 260.773C236.303 262.484 233.822 262.996 231.221 261.354L229.521 263.604L228.082 262.349Z" fill="#F8C244"/>
<path d="M90.8455 228.59L157.282 220.724L109.781 241.734L90.8455 228.59Z" fill="#3862F8"/>
<path d="M157.282 220.724L117.689 263.959L109.782 241.733L157.282 220.724Z" fill="#3862F8"/>
<path d="M101.946 265.443L109.782 241.733L157.282 220.724L101.946 265.443Z" fill="#3862F8"/>
<g opacity="0.4">
<path d="M147.911 300.564C137.289 300.69 126.668 300.86 116.037 301.089C103.97 301.363 91.6916 301.741 80.1912 306.053C82.7884 305.081 88.2658 307.002 91.1055 307.151C95.0569 307.403 99.0184 307.403 102.97 307.403C110.862 307.403 118.755 307.128 126.648 307.54C134.429 307.872 142.15 309.198 149.669 311.486C156.844 313.739 164.656 312.208 172.084 314.187C177.41 315.662 182.624 318.2 188.102 318.589C189.828 318.714 191.551 318.702 193.276 318.692C196.126 318.673 198.977 318.654 201.836 319.253C206.424 320.213 210.749 322.388 215.286 323.658C217.722 324.344 220.218 324.756 222.735 324.904C228.05 325.202 233.356 324.275 238.621 323.349L268.736 318.052C269.595 318.029 270.404 317.641 271.01 316.955C271.596 315.88 271.435 314.483 270.636 313.602C270.313 313.213 269.929 312.904 269.505 312.676C268.979 312.39 268.433 312.151 267.857 311.968C263.097 310.618 258.196 309.931 253.285 309.931C248.979 309.793 244.442 309.897 240.713 312.414C239.834 313.146 238.853 313.706 237.802 314.072C236.64 314.187 235.468 313.946 234.407 313.375C232.507 312.585 230.466 311.464 228.576 311.304C226.686 311.144 224.624 311.509 222.745 311.509C218.308 311.509 213.862 311.429 209.425 311.509L197.46 311.738C188.011 311.818 178.592 310.652 169.386 308.25L187.233 303.571C176.694 300.96 165.887 300.517 155.09 300.517C152.696 300.517 150.301 300.539 147.911 300.564Z" fill="#7F7F7F"/>
</g>
<path d="M271.809 297.269C271.809 297.269 274.78 300.438 274.204 302.691C273.618 304.944 270.95 306.443 270.576 309.188C270.202 311.933 268.767 313.432 267.463 313.432H261.248C261.248 313.432 260.278 311.499 262.612 310.915C264.947 310.332 265.796 307.095 265.654 304.098C265.594 301.765 265.674 299.431 265.876 297.109L270.798 295.771L271.809 297.269Z" fill="#FCBDBA"/>
<path d="M253.426 187.954C253.426 187.954 260.763 199.473 261.45 207.239C262.137 215.017 262.521 242.343 263.977 249.927C265.432 257.51 270.778 272.105 270.778 295.748C270.273 296.732 269.464 297.475 268.504 297.83C267.847 298.093 267.18 298.31 266.503 298.482C265.068 298.859 263.603 298.047 262.976 296.537C259.358 288.016 247.817 260.53 247.231 254.834C246.817 250.796 243.169 224.042 235.225 208.406C233.285 204.643 236.398 189.716 236.398 189.716L253.426 187.954Z" fill="#1135B5"/>
<path d="M271.475 302.623C270.98 304.521 269.919 306.168 268.474 307.289C267.827 307.907 266.948 308.113 266.129 307.85C265.907 307.713 265.674 307.587 265.442 307.472C264.876 307.369 264.3 307.61 263.926 308.113C263.532 308.57 263.229 309.131 262.794 309.554C261.996 310.149 261.127 310.618 260.207 310.938C259.338 311.396 258.499 312.357 258.661 313.443C258.863 314.85 260.429 315.228 261.652 315.228C264.26 315.216 266.857 314.953 269.424 314.45C269.838 314.404 270.222 314.232 270.545 313.935C270.838 313.489 271.01 312.951 271.051 312.391C271.263 310.938 271.788 309.554 272.587 308.387C273.85 306.58 275.932 305.173 275.982 302.886C275.982 301.399 274.709 298.962 273.415 298.482C272.122 298.013 271.768 301.319 271.475 302.623Z" fill="#3862F8"/>
<path d="M246.665 298.608C246.665 298.608 247.736 312.025 246.433 312.78H229.697C229.697 312.78 229.697 310.527 232.376 310.035C235.054 309.543 239.773 307.701 240.561 303.618C241.35 299.534 246.665 298.608 246.665 298.608Z" fill="#FCBDBA"/>
<path d="M234.558 187.017L232.446 186.285C232.446 186.285 232.386 186.113 232.295 185.781C232.982 186.33 233.74 186.753 234.558 187.017Z" fill="#FCBDBA"/>
<path d="M233.032 188.48C233.032 188.48 228.222 205.981 227.909 211.94C227.595 217.9 237.105 296.617 237.489 299.328C237.863 302.039 240.612 303.56 240.612 303.56C241.562 304.109 242.663 304.201 243.684 303.835C244.897 303.549 246.029 302.92 246.978 302.016C246.978 302.016 250.718 245.935 248.403 225.849C246.989 213.45 246.2 200.959 246.049 188.458L233.032 188.48Z" fill="#3862F8"/>
<path d="M259.5 174.446C259.348 177.74 256.518 182.064 256.114 183.15C255.144 185.861 253.972 186.284 253.972 186.284C254.285 187.383 254.447 188.526 254.457 189.67C254.457 189.67 244.108 192.724 236.115 191.306C234.902 191.1 233.699 190.757 232.547 190.276C231.941 188.87 231.84 187.268 232.254 185.781C231.496 183.15 228.182 170.946 229.768 163.728C230.142 161.978 230.597 160.251 231.102 158.524C231.547 157.014 231.769 155.516 232.214 154.006C232.507 153.32 232.598 152.553 232.487 151.81C232.355 151.364 232.012 151.032 231.597 150.986C231.385 150.963 231.173 151.078 231.042 151.272C232.062 148.424 234.801 147.086 237.287 145.999C237.732 145.782 238.217 145.644 238.702 145.622C239.379 145.725 240.016 146.01 240.571 146.457C241.127 146.823 241.693 147.154 242.269 147.463C243.876 148.31 245.594 148.904 247.352 149.202C248.252 149.362 249.171 149.431 250.081 149.385C250.657 149.385 251.85 148.927 252.355 149.202C253.426 149.797 254.427 153.605 254.942 154.795C256.468 158.318 257.994 161.852 259.5 165.375C259.651 168.395 259.651 171.426 259.5 174.446Z" fill="white"/>
<path d="M242.441 310.835C241.521 310.801 240.622 310.652 239.733 310.401C239.379 310.321 239.025 310.183 238.692 310.012C237.903 309.543 237.317 308.548 236.438 308.422C236.064 308.388 235.68 308.445 235.316 308.582L233.467 309.131C232.578 309.36 231.719 309.703 230.9 310.149C230.051 310.607 229.364 311.384 228.96 312.345C228.818 312.723 228.586 314.484 228.828 314.77C229.02 314.953 229.263 315.045 229.505 315.033C234.963 315.365 240.43 315.25 245.867 314.69C246.17 314.69 246.463 314.61 246.736 314.45C247.15 314.152 247.453 312.254 247.534 311.739C247.736 310.321 247.464 308.879 246.079 309.749C244.967 310.458 243.714 310.835 242.441 310.835Z" fill="#3862F8"/>
<path d="M216.095 154.6C212.416 154.269 208.778 153.491 205.241 152.267C203.584 151.729 201.916 151.02 200.249 150.689C198.743 150.471 197.389 149.522 196.55 148.092C195.772 146.754 195.337 144.912 194.024 144.375L194.135 146.422C194.175 146.651 194.135 146.902 194.024 147.108C193.761 147.497 193.235 147.257 192.892 146.994L188.294 143.562C188.233 144.5 188.607 145.404 189.264 145.965C189.941 146.491 190.466 147.211 190.79 148.069C189.506 147.2 188.142 146.479 186.727 145.93C186.687 146.788 187.061 147.6 187.697 148.058C188.334 148.469 188.9 149.019 189.365 149.648C188.182 149.247 186.98 148.973 185.747 148.836C185.464 149.545 186.242 150.139 186.879 150.391L189.577 151.421C188.496 151.398 187.414 151.443 186.333 151.558C186.929 152.461 188.122 152.187 189.072 152.439C190.042 152.873 190.941 153.479 191.72 154.257C192.932 155.001 194.246 155.527 195.61 155.801C196.54 156.247 197.399 156.854 198.157 157.609C200.744 159.324 203.452 160.8 206.252 162.012C207.626 162.664 209.001 163.305 210.415 163.82C214.862 165.398 219.612 165.49 224.26 165.204C227.828 165.112 231.314 164.037 234.427 162.058C237.156 160.319 238.196 155.596 237.742 152.164C237.681 151.398 237.428 150.666 237.024 150.048C236.6 149.545 236.054 149.213 235.448 149.099C233.234 148.584 231.092 150.094 229.091 151.295C225.13 153.754 220.622 154.909 216.095 154.6Z" fill="#FCBDBA"/>
<path d="M238.362 139.812C238.362 139.812 238.668 142.363 238.801 144.795C243.03 144.071 245.028 139.578 245.809 137.127L238.362 139.812Z" fill="#FCBDBA"/>
<path d="M236.938 141.869C237.005 141.927 237.081 141.983 237.157 142.016C237.382 142.107 237.626 142.139 237.865 142.083C238.834 141.925 239.783 141.591 240.66 141.089C242.025 140.475 243.305 139.65 244.458 138.62C245.606 137.491 246.365 135.984 246.593 134.384C246.684 132.949 246.659 131.529 246.498 130.118C246.391 128.154 246.509 125.68 245.341 124.111C244.255 122.696 242.439 122.563 240.827 122.69C238.576 122.862 235.749 123.283 234.073 125.32C233.59 125.921 233.24 126.626 233.049 127.376C232.801 128.811 232.796 130.257 233.019 131.66C233.082 132.818 233.082 133.975 233.029 135.138C233.009 135.352 233.021 135.573 233.064 135.778C233.196 136.082 233.399 136.331 233.661 136.506C235.069 137.841 235.425 140.137 236.694 141.637C236.763 141.738 236.851 141.804 236.938 141.869Z" fill="#FCBDBA"/>
<path d="M238.791 137.711C238.791 137.711 238.672 138.486 236.877 138.609C236.877 138.609 235.358 138.717 235.361 137.884C236.469 137.384 237.704 137.324 238.791 137.711Z" fill="#FCBDBA"/>
<path d="M232.647 130.72L233.822 127.831C233.914 129.607 234.955 131.121 236.475 131.696C236.98 131.805 237.459 131.996 237.911 132.248C238.285 132.587 238.572 133.027 238.749 133.515C239.808 135.977 240.375 138.679 240.406 141.446C240.462 146.233 238.046 155.524 242.573 158.519C244.229 159.44 246.092 159.86 247.982 159.724C247.899 161.679 247.941 163.63 248.106 165.566C248.151 167.573 248.71 169.507 249.707 171.152C251.597 173.785 255.333 173.97 258.049 172.321C258.791 171.746 259.636 171.328 260.513 171.098C261.893 170.932 263.054 172.059 264.357 172.479C266.329 172.989 268.444 172.316 269.93 170.725C273.307 167.063 273.834 161.346 271.158 157.28C270.065 155.761 268.593 154.637 267.56 153.077C264.668 148.72 267.113 142.479 265.357 137.557C264.584 135.365 263.092 133.6 261.179 132.563C258.999 131.4 256.247 131.188 254.733 129.086C252.719 126.297 254.054 121.852 252.694 118.589C251.679 116.167 249.353 114.829 247.04 114.191C241.733 112.793 236.029 114.281 231.693 118.205C228.184 121.408 228.379 128.372 232.647 130.72Z" fill="#473F47"/>
<path d="M310.342 55.7742V90.8209C310.443 97.5695 305.684 103.14 299.711 103.243H276.083L265.391 120.766V103.243H245.24C239.268 103.163 234.488 97.6267 234.548 90.8667V55.7742C234.457 49.0142 239.227 43.4552 245.2 43.3523H245.24H299.65C305.613 43.4209 310.403 48.957 310.342 55.717V55.7742Z" fill="white"/>
<path d="M269.282 96.0138L269.474 90.3976C266.897 90.2489 264.411 89.2767 262.309 87.5838L263.562 83.935C265.523 85.5478 267.847 86.4857 270.263 86.6344C273.648 86.7717 275.972 84.6327 276.094 81.4758C276.215 78.3188 274.416 76.4773 270.97 74.6243C266.21 72.1994 263.31 69.5114 263.481 64.7302C263.633 60.1435 266.544 56.7921 270.93 56.163L271.111 50.5354L274.022 50.6727L273.84 56.0257C276.003 56.1516 278.095 56.9179 279.924 58.2219L278.64 61.8821C276.892 60.5324 274.851 59.766 272.728 59.686C269.08 59.5258 267.625 62.0079 267.564 64.2041C267.463 67.0751 269.171 68.6078 273.193 70.8039C278.054 73.3432 280.358 76.3057 280.186 81.2585C280.045 85.6622 277.276 89.6084 272.415 90.3175L272.213 96.071L269.282 96.0138Z" fill="#3862F8"/>
</svg>
