<svg width="350" height="351" viewBox="0 0 350 351" fill="none" xmlns="http://www.w3.org/2000/svg">
<path d="M232.875 281.826H222.104V190.029H232.875V281.826Z" fill="url(#paint0_linear_38_4277)"/>
<path d="M328.11 254.534H317.339V162.736H328.11V254.534Z" fill="url(#paint1_linear_38_4277)"/>
<path d="M53.3453 231.428H42.5739V139.631H53.3453V231.428Z" fill="url(#paint2_linear_38_4277)"/>
<path d="M32.0513 141.315C32.0513 142.166 33.241 143.016 35.6237 143.665L219.023 193.61C223.785 194.907 231.508 194.907 236.27 193.61L335.731 166.524C338.112 165.876 339.304 165.027 339.304 164.177V168.63C339.304 169.48 338.112 170.329 335.731 170.977L236.27 198.063C231.508 199.36 223.785 199.36 219.023 198.063L35.6237 148.119C33.241 147.47 32.0513 146.619 32.0513 145.769V141.315Z" fill="url(#paint3_linear_38_4277)"/>
<path d="M32.0513 141.315C32.0513 140.466 33.2433 139.616 35.6237 138.968L135.085 111.882C139.847 110.585 147.57 110.585 152.332 111.882L335.731 161.827C338.114 162.476 339.304 163.326 339.304 164.177C339.304 165.026 338.112 165.876 335.731 166.524L236.27 193.61C231.508 194.907 223.785 194.907 219.023 193.61L35.6237 143.665C33.241 143.016 32.0513 142.166 32.0513 141.315Z" fill="url(#paint4_linear_38_4277)"/>
<path d="M265.633 151.085L209.599 135.825L190.167 141.117L246.201 156.377L265.633 151.085Z" fill="url(#paint5_linear_38_4277)"/>
<path d="M228.239 86.2395V137.615C228.239 141.283 226.146 142.887 224.486 143.34L213.351 146.372C212.026 146.733 210.632 146.733 209.308 146.372L185.322 139.84C184.421 139.595 184.421 138.294 185.322 138.048L195.932 135.159C197.592 134.707 198.943 132.469 198.943 130.17V78.261L228.239 86.2395Z" fill="url(#paint6_linear_38_4277)"/>
<path d="M227.262 86.5708V137.316C227.262 139.563 225.942 141.751 224.319 142.193L212.707 145.355C211.413 145.707 210.049 145.707 208.755 145.355L185.307 138.97C184.425 138.73 184.425 137.458 185.307 137.218L195.679 134.394C197.302 133.952 198.622 131.764 198.622 129.517V78.7715L227.262 86.5708Z" fill="url(#paint7_linear_38_4277)"/>
<path d="M264.443 138.307C266.362 137.785 267.72 135.566 267.72 132.537V67.951C267.72 63.9988 265.407 60.1651 262.553 59.3876L163.778 32.4888C163.111 32.3071 162.473 32.3081 161.888 32.4674L163.684 31.9786C164.269 31.8193 164.907 31.8179 165.574 31.9995L264.349 58.8984C267.203 59.6758 269.517 63.5096 269.517 67.4618V132.048C269.517 135.077 268.158 137.296 266.239 137.818L264.443 138.307Z" fill="url(#paint8_linear_38_4277)"/>
<path d="M264.442 138.307C263.857 138.467 263.22 138.468 262.553 138.286L163.777 111.387C160.923 110.61 158.61 106.776 158.61 102.824V38.2373C158.61 35.209 159.969 32.9899 161.888 32.4674C162.473 32.3081 163.11 32.3071 163.777 32.4888L262.553 59.3876C265.407 60.165 267.721 63.9988 267.721 67.951V132.537C267.721 135.566 266.361 137.785 264.442 138.307Z" fill="url(#paint9_linear_38_4277)"/>
<path d="M163.033 36.1348C163.344 36.0501 163.683 36.0492 164.037 36.1457L261.816 62.7736C263.331 63.1863 264.559 65.2213 264.559 67.3192L264.406 131.63C264.406 133.237 263.685 134.415 262.666 134.692C262.356 134.777 262.017 134.778 261.663 134.681L163.883 108.054C162.368 107.641 161.14 105.606 161.14 103.508L161.294 39.1969C161.294 37.5898 162.015 36.412 163.033 36.1348Z" fill="url(#paint10_linear_38_4277)"/>
<path d="M266.137 169.774L199.27 151.565L176.082 157.88L242.948 176.089L266.137 169.774Z" fill="url(#paint11_linear_38_4277)"/>
<path d="M128.948 143.533C128.948 143.709 129.189 143.886 129.682 144.02L203.864 164.222C204.842 164.488 206.429 164.488 207.408 164.222L228.177 158.566C228.662 158.434 228.911 158.26 228.911 158.087V159.368C228.911 159.541 228.662 159.715 228.177 159.847L207.408 165.503C206.429 165.769 204.842 165.769 203.864 165.503L129.682 145.301C129.189 145.167 128.948 144.99 128.948 144.814V143.533Z" fill="url(#paint12_linear_38_4277)"/>
<path d="M128.948 143.533C128.948 143.36 129.197 143.187 129.682 143.055L150.451 137.399C151.43 137.132 153.017 137.132 153.996 137.399L228.177 157.601C228.671 157.735 228.911 157.911 228.911 158.087C228.911 158.26 228.662 158.434 228.177 158.566L207.408 164.222C206.429 164.488 204.842 164.488 203.864 164.222L129.682 144.02C129.189 143.885 128.948 143.709 128.948 143.533Z" fill="url(#paint13_linear_38_4277)"/>
<path d="M151.887 140.726L150.141 140.25C149.846 140.17 149.846 140.04 150.141 139.959L151.887 139.484C152.182 139.403 152.659 139.403 152.953 139.484L154.699 139.959C154.994 140.04 154.994 140.17 154.699 140.25L152.953 140.726C152.659 140.806 152.182 140.806 151.887 140.726Z" fill="url(#paint14_linear_38_4277)"/>
<path d="M157.624 141.998L159.37 141.522C159.665 141.442 159.665 141.312 159.37 141.232L157.624 140.756C157.329 140.675 156.852 140.675 156.557 140.756L154.811 141.232C154.517 141.312 154.517 141.442 154.811 141.522L156.557 141.998C156.852 142.078 157.329 142.078 157.624 141.998Z" fill="url(#paint15_linear_38_4277)"/>
<path d="M162.294 143.27L164.04 142.794C164.335 142.714 164.335 142.584 164.04 142.503L162.294 142.028C161.999 141.947 161.522 141.947 161.227 142.028L159.481 142.503C159.186 142.584 159.186 142.714 159.481 142.794L161.227 143.27C161.522 143.35 161.999 143.35 162.294 143.27Z" fill="url(#paint16_linear_38_4277)"/>
<path d="M166.964 144.541L168.71 144.066C169.005 143.986 169.005 143.856 168.71 143.775L166.964 143.3C166.669 143.219 166.192 143.219 165.898 143.3L164.152 143.775C163.857 143.856 163.857 143.986 164.152 144.066L165.898 144.541C166.192 144.622 166.669 144.622 166.964 144.541Z" fill="url(#paint17_linear_38_4277)"/>
<path d="M171.634 145.813L173.38 145.338C173.675 145.258 173.675 145.128 173.38 145.047L171.634 144.571C171.34 144.491 170.862 144.491 170.568 144.571L168.822 145.047C168.527 145.128 168.527 145.258 168.822 145.338L170.568 145.813C170.862 145.894 171.34 145.894 171.634 145.813Z" fill="url(#paint18_linear_38_4277)"/>
<path d="M176.304 147.085L178.05 146.609C178.345 146.529 178.345 146.399 178.05 146.318L176.304 145.843C176.009 145.763 175.532 145.763 175.238 145.843L173.492 146.318C173.197 146.399 173.197 146.529 173.492 146.609L175.238 147.085C175.532 147.165 176.009 147.165 176.304 147.085Z" fill="url(#paint19_linear_38_4277)"/>
<path d="M180.975 148.357L182.721 147.881C183.015 147.801 183.015 147.671 182.721 147.591L180.975 147.115C180.68 147.035 180.203 147.035 179.908 147.115L178.162 147.591C177.867 147.671 177.867 147.801 178.162 147.881L179.908 148.357C180.203 148.437 180.68 148.437 180.975 148.357Z" fill="url(#paint20_linear_38_4277)"/>
<path d="M185.645 149.629L187.391 149.153C187.685 149.073 187.685 148.943 187.391 148.862L185.645 148.387C185.35 148.306 184.873 148.306 184.578 148.387L182.832 148.862C182.537 148.943 182.537 149.073 182.832 149.153L184.578 149.629C184.873 149.709 185.35 149.709 185.645 149.629Z" fill="url(#paint21_linear_38_4277)"/>
<path d="M190.315 150.901L192.061 150.425C192.356 150.345 192.356 150.215 192.061 150.135L190.315 149.659C190.02 149.578 189.543 149.578 189.248 149.659L187.502 150.135C187.208 150.215 187.208 150.345 187.502 150.425L189.248 150.901C189.543 150.981 190.02 150.981 190.315 150.901Z" fill="url(#paint22_linear_38_4277)"/>
<path d="M194.985 152.172L196.731 151.697C197.026 151.616 197.026 151.486 196.731 151.406L194.985 150.93C194.69 150.85 194.213 150.85 193.918 150.93L192.172 151.406C191.878 151.486 191.878 151.616 192.172 151.697L193.918 152.172C194.213 152.252 194.69 152.252 194.985 152.172Z" fill="url(#paint23_linear_38_4277)"/>
<path d="M199.655 153.444L201.401 152.969C201.696 152.888 201.696 152.758 201.401 152.678L199.655 152.202C199.36 152.122 198.883 152.122 198.588 152.202L196.842 152.678C196.548 152.758 196.548 152.888 196.842 152.969L198.588 153.444C198.883 153.524 199.36 153.524 199.655 153.444Z" fill="url(#paint24_linear_38_4277)"/>
<path d="M204.325 154.716L206.071 154.24C206.366 154.16 206.366 154.03 206.071 153.95L204.325 153.474C204.031 153.393 203.553 153.393 203.259 153.474L201.513 153.95C201.218 154.03 201.218 154.16 201.513 154.24L203.259 154.716C203.553 154.796 204.031 154.796 204.325 154.716Z" fill="url(#paint25_linear_38_4277)"/>
<path d="M208.995 155.988L210.741 155.512C211.036 155.432 211.036 155.302 210.741 155.221L208.995 154.746C208.701 154.665 208.223 154.665 207.929 154.746L206.183 155.221C205.888 155.302 205.888 155.432 206.183 155.512L207.929 155.988C208.223 156.068 208.701 156.068 208.995 155.988Z" fill="url(#paint26_linear_38_4277)"/>
<path d="M213.666 157.26L215.412 156.784C215.706 156.704 215.706 156.574 215.412 156.494L213.666 156.018C213.371 155.937 212.894 155.937 212.599 156.018L210.853 156.494C210.558 156.574 210.558 156.704 210.853 156.784L212.599 157.26C212.894 157.34 213.371 157.34 213.666 157.26Z" fill="url(#paint27_linear_38_4277)"/>
<path d="M218.336 158.531L220.082 158.056C220.376 157.975 220.376 157.845 220.082 157.765L218.336 157.289C218.041 157.209 217.564 157.209 217.269 157.289L215.523 157.765C215.228 157.845 215.228 157.975 215.523 158.056L217.269 158.531C217.564 158.612 218.041 158.612 218.336 158.531Z" fill="url(#paint28_linear_38_4277)"/>
<path d="M149.149 144.566L151.349 143.967C151.518 143.921 151.518 143.846 151.349 143.8L144 141.799C143.83 141.753 143.556 141.753 143.387 141.799L141.186 142.398C141.017 142.444 141.017 142.519 141.186 142.565L148.536 144.566C148.705 144.612 148.979 144.612 149.149 144.566Z" fill="url(#paint29_linear_38_4277)"/>
<path d="M153.567 145.646L155.313 145.171C155.608 145.09 155.608 144.96 155.313 144.88L153.567 144.404C153.272 144.324 152.795 144.324 152.5 144.404L150.754 144.88C150.46 144.96 150.46 145.09 150.754 145.171L152.5 145.646C152.795 145.727 153.272 145.727 153.567 145.646Z" fill="url(#paint30_linear_38_4277)"/>
<path d="M158.237 146.918L159.983 146.442C160.278 146.362 160.278 146.232 159.983 146.152L158.237 145.676C157.943 145.596 157.465 145.596 157.171 145.676L155.425 146.152C155.13 146.232 155.13 146.362 155.425 146.442L157.171 146.918C157.465 146.998 157.943 146.998 158.237 146.918Z" fill="url(#paint31_linear_38_4277)"/>
<path d="M162.907 148.19L164.653 147.714C164.948 147.634 164.948 147.504 164.653 147.423L162.907 146.948C162.612 146.868 162.135 146.868 161.841 146.948L160.095 147.423C159.8 147.504 159.8 147.634 160.095 147.714L161.841 148.19C162.135 148.27 162.612 148.27 162.907 148.19Z" fill="url(#paint32_linear_38_4277)"/>
<path d="M167.577 149.462L169.323 148.986C169.618 148.906 169.618 148.776 169.323 148.696L167.577 148.22C167.282 148.14 166.805 148.14 166.51 148.22L164.765 148.696C164.47 148.776 164.47 148.906 164.765 148.986L166.51 149.462C166.805 149.542 167.282 149.542 167.577 149.462Z" fill="url(#paint33_linear_38_4277)"/>
<path d="M172.248 150.733L173.994 150.258C174.288 150.178 174.288 150.047 173.994 149.967L172.248 149.491C171.953 149.411 171.476 149.411 171.181 149.491L169.435 149.967C169.14 150.047 169.14 150.178 169.435 150.258L171.181 150.733C171.476 150.814 171.953 150.814 172.248 150.733Z" fill="url(#paint34_linear_38_4277)"/>
<path d="M176.917 152.005L178.663 151.53C178.958 151.45 178.958 151.319 178.663 151.239L176.917 150.763C176.623 150.683 176.146 150.683 175.851 150.763L174.105 151.239C173.81 151.319 173.81 151.45 174.105 151.53L175.851 152.005C176.146 152.086 176.623 152.086 176.917 152.005Z" fill="url(#paint35_linear_38_4277)"/>
<path d="M181.588 153.277L183.334 152.802C183.629 152.721 183.629 152.591 183.334 152.511L181.588 152.035C181.293 151.955 180.816 151.955 180.521 152.035L178.775 152.511C178.481 152.591 178.481 152.721 178.775 152.802L180.521 153.277C180.816 153.357 181.293 153.357 181.588 153.277Z" fill="url(#paint36_linear_38_4277)"/>
<path d="M186.258 154.549L188.004 154.074C188.299 153.993 188.299 153.863 188.004 153.783L186.258 153.307C185.963 153.227 185.486 153.227 185.191 153.307L183.445 153.783C183.151 153.863 183.151 153.993 183.445 154.074L185.191 154.549C185.486 154.629 185.963 154.629 186.258 154.549Z" fill="url(#paint37_linear_38_4277)"/>
<path d="M190.928 155.821L192.674 155.346C192.969 155.265 192.969 155.135 192.674 155.055L190.928 154.579C190.633 154.499 190.156 154.499 189.861 154.579L188.115 155.055C187.821 155.135 187.821 155.265 188.115 155.346L189.861 155.821C190.156 155.901 190.633 155.901 190.928 155.821Z" fill="url(#paint38_linear_38_4277)"/>
<path d="M195.598 157.092L197.344 156.617C197.639 156.536 197.639 156.406 197.344 156.326L195.598 155.85C195.304 155.77 194.826 155.77 194.532 155.85L192.786 156.326C192.491 156.406 192.491 156.536 192.786 156.617L194.532 157.092C194.826 157.173 195.304 157.173 195.598 157.092Z" fill="url(#paint39_linear_38_4277)"/>
<path d="M200.268 158.364L202.014 157.889C202.309 157.808 202.309 157.679 202.014 157.598L200.268 157.122C199.974 157.042 199.496 157.042 199.202 157.122L197.456 157.598C197.161 157.679 197.161 157.808 197.456 157.889L199.202 158.364C199.496 158.445 199.974 158.445 200.268 158.364Z" fill="url(#paint40_linear_38_4277)"/>
<path d="M209.341 160.98L211.622 160.359C211.769 160.319 211.769 160.254 211.622 160.214L204.671 158.321C204.524 158.282 204.287 158.282 204.14 158.321L201.858 158.942C201.711 158.982 201.711 159.048 201.858 159.087L208.81 160.98C208.956 161.02 209.194 161.02 209.341 160.98Z" fill="url(#paint41_linear_38_4277)"/>
<path d="M150.946 142.604L153.065 142.027C153.257 141.975 153.257 141.89 153.065 141.838L148.502 140.596C148.31 140.543 148 140.543 147.808 140.596L145.689 141.172C145.497 141.225 145.497 141.309 145.689 141.362L150.252 142.604C150.444 142.656 150.754 142.656 150.946 142.604Z" fill="url(#paint42_linear_38_4277)"/>
<path d="M155.803 143.826L157.549 143.35C157.843 143.27 157.843 143.14 157.549 143.059L155.803 142.584C155.508 142.503 155.031 142.503 154.736 142.584L152.99 143.059C152.695 143.14 152.695 143.27 152.99 143.35L154.736 143.826C155.031 143.906 155.508 143.906 155.803 143.826Z" fill="url(#paint43_linear_38_4277)"/>
<path d="M160.473 145.097L162.219 144.621C162.513 144.541 162.513 144.411 162.219 144.331L160.473 143.855C160.178 143.775 159.701 143.775 159.406 143.855L157.66 144.331C157.365 144.411 157.365 144.541 157.66 144.621L159.406 145.097C159.701 145.177 160.178 145.177 160.473 145.097Z" fill="url(#paint44_linear_38_4277)"/>
<path d="M165.143 146.369L166.889 145.893C167.183 145.813 167.183 145.683 166.889 145.602L165.143 145.127C164.848 145.047 164.371 145.047 164.076 145.127L162.33 145.602C162.035 145.683 162.035 145.813 162.33 145.893L164.076 146.369C164.371 146.449 164.848 146.449 165.143 146.369Z" fill="url(#paint45_linear_38_4277)"/>
<path d="M169.813 147.641L171.559 147.165C171.854 147.085 171.854 146.955 171.559 146.874L169.813 146.399C169.518 146.319 169.041 146.319 168.746 146.399L167 146.874C166.706 146.955 166.706 147.085 167 147.165L168.746 147.641C169.041 147.721 169.518 147.721 169.813 147.641Z" fill="url(#paint46_linear_38_4277)"/>
<path d="M174.483 148.913L176.229 148.437C176.524 148.357 176.524 148.227 176.229 148.147L174.483 147.671C174.188 147.59 173.711 147.59 173.416 147.671L171.67 148.147C171.376 148.227 171.376 148.357 171.67 148.437L173.416 148.913C173.711 148.993 174.188 148.993 174.483 148.913Z" fill="url(#paint47_linear_38_4277)"/>
<path d="M179.153 150.184L180.899 149.709C181.194 149.628 181.194 149.498 180.899 149.418L179.153 148.942C178.859 148.862 178.381 148.862 178.087 148.942L176.341 149.418C176.046 149.498 176.046 149.628 176.341 149.709L178.087 150.184C178.381 150.265 178.859 150.265 179.153 150.184Z" fill="url(#paint48_linear_38_4277)"/>
<path d="M183.823 151.456L185.569 150.981C185.864 150.9 185.864 150.771 185.569 150.69L183.823 150.214C183.529 150.134 183.051 150.134 182.757 150.214L181.011 150.69C180.716 150.771 180.716 150.9 181.011 150.981L182.757 151.456C183.051 151.537 183.529 151.537 183.823 151.456Z" fill="url(#paint49_linear_38_4277)"/>
<path d="M188.493 152.728L190.239 152.253C190.534 152.172 190.534 152.042 190.239 151.962L188.493 151.486C188.199 151.406 187.721 151.406 187.427 151.486L185.681 151.962C185.386 152.042 185.386 152.172 185.681 152.253L187.427 152.728C187.721 152.808 188.199 152.808 188.493 152.728Z" fill="url(#paint50_linear_38_4277)"/>
<path d="M193.164 154L194.91 153.524C195.204 153.444 195.204 153.314 194.91 153.234L193.164 152.758C192.869 152.678 192.392 152.678 192.097 152.758L190.351 153.234C190.056 153.314 190.056 153.444 190.351 153.524L192.097 154C192.392 154.08 192.869 154.08 193.164 154Z" fill="url(#paint51_linear_38_4277)"/>
<path d="M197.834 155.272L199.58 154.796C199.874 154.716 199.874 154.586 199.58 154.506L197.834 154.03C197.539 153.95 197.062 153.95 196.767 154.03L195.021 154.506C194.726 154.586 194.726 154.716 195.021 154.796L196.767 155.272C197.062 155.352 197.539 155.352 197.834 155.272Z" fill="url(#paint52_linear_38_4277)"/>
<path d="M202.504 156.543L204.25 156.068C204.545 155.987 204.545 155.857 204.25 155.777L202.504 155.301C202.209 155.221 201.732 155.221 201.437 155.301L199.691 155.777C199.397 155.857 199.397 155.987 199.691 156.068L201.437 156.543C201.732 156.624 202.209 156.624 202.504 156.543Z" fill="url(#paint53_linear_38_4277)"/>
<path d="M207.174 157.815L208.92 157.34C209.215 157.259 209.215 157.13 208.92 157.049L207.174 156.573C206.879 156.493 206.402 156.493 206.107 156.573L204.361 157.049C204.067 157.13 204.067 157.259 204.361 157.34L206.107 157.815C206.402 157.896 206.879 157.896 207.174 157.815Z" fill="url(#paint54_linear_38_4277)"/>
<path d="M213.859 159.75L216.026 159.16C216.205 159.111 216.205 159.032 216.026 158.984L211.634 157.788C211.456 157.74 211.166 157.74 210.988 157.788L208.821 158.378C208.642 158.427 208.642 158.506 208.821 158.554L213.213 159.75C213.391 159.798 213.681 159.798 213.859 159.75Z" fill="url(#paint55_linear_38_4277)"/>
<path d="M142.139 145.002L144.258 144.425C144.45 144.373 144.45 144.289 144.258 144.236L139.695 142.994C139.503 142.942 139.193 142.942 139.001 142.994L136.882 143.571C136.69 143.623 136.69 143.708 136.882 143.76L141.445 145.002C141.637 145.055 141.947 145.055 142.139 145.002Z" fill="url(#paint56_linear_38_4277)"/>
<path d="M146.996 146.224L148.742 145.748C149.036 145.668 149.036 145.538 148.742 145.457L146.996 144.982C146.701 144.902 146.224 144.902 145.929 144.982L144.183 145.457C143.888 145.538 143.888 145.668 144.183 145.748L145.929 146.224C146.224 146.304 146.701 146.304 146.996 146.224Z" fill="url(#paint57_linear_38_4277)"/>
<path d="M151.666 147.495L153.411 147.02C153.706 146.939 153.706 146.809 153.411 146.729L151.666 146.253C151.371 146.173 150.894 146.173 150.599 146.253L148.853 146.729C148.558 146.809 148.558 146.939 148.853 147.02L150.599 147.495C150.894 147.575 151.371 147.575 151.666 147.495Z" fill="url(#paint58_linear_38_4277)"/>
<path d="M174.963 153.869L176.817 153.364C177.081 153.292 177.081 153.175 176.817 153.103L156.283 147.511C156.018 147.439 155.588 147.439 155.323 147.511L153.47 148.016C153.205 148.088 153.205 148.205 153.47 148.277L174.003 153.869C174.268 153.941 174.698 153.941 174.963 153.869Z" fill="url(#paint59_linear_38_4277)"/>
<path d="M179.687 155.126L181.433 154.651C181.727 154.57 181.727 154.44 181.433 154.36L179.687 153.884C179.392 153.804 178.915 153.804 178.62 153.884L176.874 154.36C176.579 154.44 176.579 154.57 176.874 154.651L178.62 155.126C178.915 155.207 179.392 155.207 179.687 155.126Z" fill="url(#paint60_linear_38_4277)"/>
<path d="M184.357 156.398L186.103 155.923C186.397 155.842 186.397 155.713 186.103 155.632L184.357 155.156C184.062 155.076 183.585 155.076 183.29 155.156L181.544 155.632C181.249 155.713 181.249 155.842 181.544 155.923L183.29 156.398C183.585 156.479 184.062 156.479 184.357 156.398Z" fill="url(#paint61_linear_38_4277)"/>
<path d="M189.027 157.67L190.773 157.195C191.068 157.114 191.068 156.984 190.773 156.904L189.027 156.428C188.732 156.348 188.255 156.348 187.96 156.428L186.214 156.904C185.92 156.984 185.92 157.114 186.214 157.195L187.96 157.67C188.255 157.75 188.732 157.75 189.027 157.67Z" fill="url(#paint62_linear_38_4277)"/>
<path d="M193.697 158.941L195.443 158.466C195.738 158.386 195.738 158.256 195.443 158.175L193.697 157.699C193.402 157.619 192.925 157.619 192.63 157.699L190.884 158.175C190.59 158.256 190.59 158.386 190.884 158.466L192.63 158.941C192.925 159.022 193.402 159.022 193.697 158.941Z" fill="url(#paint63_linear_38_4277)"/>
<path d="M198.367 160.213L200.113 159.738C200.408 159.658 200.408 159.527 200.113 159.447L198.367 158.971C198.072 158.891 197.595 158.891 197.3 158.971L195.554 159.447C195.26 159.527 195.26 159.658 195.554 159.738L197.3 160.213C197.595 160.294 198.072 160.294 198.367 160.213Z" fill="url(#paint64_linear_38_4277)"/>
<path d="M205.073 162.142L207.198 161.564C207.388 161.512 207.388 161.428 207.198 161.376L202.847 160.192C202.657 160.14 202.35 160.14 202.16 160.192L200.035 160.771C199.845 160.822 199.845 160.906 200.035 160.958L204.386 162.142C204.576 162.194 204.883 162.194 205.073 162.142Z" fill="url(#paint65_linear_38_4277)"/>
<path d="M170.325 19.2194C170.723 19.111 171.157 19.111 171.611 19.2346L254.088 41.6949C256.034 42.225 257.612 44.8392 257.612 47.5343V113.281C257.612 115.347 256.684 116.859 255.374 117.216C254.976 117.324 254.542 117.324 254.088 117.201L171.611 94.7404C169.665 94.2103 168.088 91.5961 168.088 88.901V23.1545C168.088 21.088 169.016 19.576 170.325 19.2194Z" fill="url(#paint66_linear_38_4277)"/>
<path d="M196.421 25.9907L171.611 19.2341C171.157 19.1105 170.723 19.111 170.325 19.2194C169.016 19.576 168.088 21.088 168.088 23.1544V88.901C168.088 91.5961 169.665 94.2098 171.611 94.7399L196.421 101.497V25.9907Z" fill="url(#paint67_linear_38_4277)"/>
<path d="M254.088 41.6954L171.611 19.2346C171.157 19.111 170.723 19.111 170.325 19.2194C169.016 19.576 168.088 21.088 168.088 23.1545V33.8456L257.612 58.2254V47.5343C257.612 44.8392 256.034 42.2255 254.088 41.6954Z" fill="url(#paint68_linear_38_4277)"/>
<path d="M173.019 24.2138C173.186 24.1686 173.367 24.1691 173.557 24.2209L252.117 45.6147C252.935 45.8372 253.597 46.936 253.597 48.0681V51.9547C253.597 52.8244 253.205 53.4587 252.654 53.6089C252.488 53.6541 252.307 53.6536 252.117 53.6018L173.557 32.208C172.739 31.9855 172.076 30.8867 172.076 29.7545V25.868C172.076 24.9983 172.468 24.364 173.019 24.2138Z" fill="white"/>
<path d="M248.229 47.0434C248.649 46.9288 249.146 47.1851 249.485 47.7481C249.942 48.5055 249.942 49.5321 249.485 50.0408C249.368 50.1716 249.232 50.2553 249.086 50.2947C248.666 50.4093 248.17 50.153 247.83 49.5901C247.373 48.8326 247.373 47.8061 247.83 47.2973C247.947 47.1665 248.084 47.0829 248.229 47.0434Z" stroke="#2E405C" stroke-miterlimit="10" stroke-linecap="round"/>
<path d="M250.314 51.4121L249.486 50.0408" stroke="#2E405C" stroke-miterlimit="10" stroke-linecap="round"/>
<path d="M172.878 40.6284C173.025 40.5885 173.184 40.589 173.351 40.6346L190.057 45.1845C190.776 45.3804 191.359 46.3461 191.359 47.3422C191.359 48.1072 191.014 48.665 190.53 48.7972C190.383 48.8371 190.224 48.8366 190.057 48.791L173.351 44.2411C172.632 44.0452 172.049 43.0795 172.049 42.0834C172.049 41.3183 172.394 40.7606 172.878 40.6284Z" fill="white"/>
<path d="M172.878 49.645C173.025 49.6051 173.184 49.6056 173.351 49.6512L180.074 51.4823C180.793 51.6782 181.376 52.6439 181.376 53.64C181.376 54.4051 181.031 54.9628 180.546 55.095C180.4 55.1349 180.24 55.1344 180.074 55.0888L173.351 53.2577C172.632 53.0618 172.049 52.0961 172.049 51.1C172.049 50.3349 172.394 49.7772 172.878 49.645Z" fill="white"/>
<path d="M202.776 29.0108C202.937 28.9671 203.111 28.9666 203.294 29.0165L247.529 41.0628C248.31 41.2758 248.944 42.3252 248.944 43.4074V52.4824C248.944 53.3117 248.572 53.9189 248.046 54.062C247.886 54.1057 247.711 54.1062 247.529 54.0563L203.294 42.01C202.512 41.797 201.879 40.7476 201.879 39.6654V30.5904C201.879 29.7611 202.251 29.1539 202.776 29.0108Z" fill="white"/>
<path d="M206.402 33.0867C206.697 33.0064 207.018 33.0059 207.355 33.0977C208.793 33.4895 209.96 35.4218 209.96 37.4141C209.96 38.9408 209.275 40.0592 208.307 40.3226C208.012 40.4029 207.691 40.4034 207.355 40.3117C205.916 39.9199 204.75 37.9875 204.75 35.9952C204.75 34.4685 205.435 33.3501 206.402 33.0867Z" fill="url(#paint69_linear_38_4277)"/>
<path d="M214.32 36.7136C214.365 36.7013 214.415 36.7013 214.467 36.7155L241.434 44.0593C241.659 44.1207 241.841 44.4226 241.841 44.734C241.841 44.9737 241.733 45.1472 241.581 45.1886C241.535 45.201 241.486 45.201 241.434 45.1867L214.467 37.8429C214.242 37.7816 214.06 37.4796 214.06 37.1682C214.06 36.9286 214.168 36.755 214.32 36.7136Z" fill="url(#paint70_linear_38_4277)"/>
<path d="M214.32 39.45C214.365 39.4376 214.415 39.4381 214.467 39.4524L226.235 42.6571C226.46 42.7184 226.642 43.0199 226.642 43.3313C226.642 43.571 226.534 43.745 226.381 43.7864C226.336 43.7987 226.287 43.7983 226.235 43.784L214.467 40.5793C214.242 40.5179 214.06 40.2165 214.06 39.905C214.06 39.6654 214.168 39.4914 214.32 39.45Z" fill="url(#paint71_linear_38_4277)"/>
<path d="M202.776 47.7366C202.937 47.6929 203.111 47.6924 203.294 47.7424L247.529 59.7886C248.31 60.0017 248.944 61.051 248.944 62.1332V71.2083C248.944 72.0375 248.572 72.6447 248.046 72.7878C247.886 72.8316 247.711 72.832 247.529 72.7821L203.294 60.7358C202.512 60.5228 201.879 59.4734 201.879 58.3912V49.3162C201.879 48.487 202.251 47.8798 202.776 47.7366Z" fill="white"/>
<path d="M206.402 51.8123C206.697 51.732 207.018 51.7315 207.355 51.8232C208.793 52.215 209.96 54.1474 209.96 56.1397C209.96 57.6664 209.275 58.7848 208.307 59.0482C208.012 59.1285 207.691 59.129 207.355 59.0372C205.916 58.6454 204.75 56.7131 204.75 54.7208C204.75 53.1941 205.435 52.0757 206.402 51.8123Z" fill="url(#paint72_linear_38_4277)"/>
<path d="M214.32 55.4395C214.365 55.4271 214.415 55.4271 214.467 55.4414L241.434 62.7852C241.659 62.8465 241.841 63.1484 241.841 63.4599C241.841 63.6995 241.733 63.8731 241.581 63.9144C241.535 63.9268 241.486 63.9268 241.434 63.9125L214.467 56.5687C214.242 56.5074 214.06 56.2055 214.06 55.894C214.06 55.6544 214.168 55.4808 214.32 55.4395Z" fill="url(#paint73_linear_38_4277)"/>
<path d="M214.32 58.1758C214.365 58.1635 214.415 58.1639 214.467 58.1782L226.235 61.3829C226.46 61.4443 226.642 61.7457 226.642 62.0572C226.642 62.2968 226.534 62.4708 226.381 62.5122C226.336 62.5246 226.287 62.5241 226.235 62.5098L214.467 59.3051C214.242 59.2437 214.06 58.9423 214.06 58.6309C214.06 58.3912 214.168 58.2172 214.32 58.1758Z" fill="url(#paint74_linear_38_4277)"/>
<path d="M202.776 66.4625C202.937 66.4187 203.111 66.4183 203.294 66.4682L247.529 78.5145C248.31 78.7275 248.944 79.7769 248.944 80.8591V89.9341C248.944 90.7633 248.572 91.3705 248.046 91.5136C247.886 91.5574 247.711 91.5579 247.529 91.5079L203.294 79.4616C202.512 79.2486 201.879 78.1992 201.879 77.117V68.042C201.879 67.2128 202.251 66.6056 202.776 66.4625Z" fill="white"/>
<path d="M206.402 70.5384C206.697 70.458 207.018 70.4576 207.355 70.5493C208.793 70.9411 209.96 72.8735 209.96 74.8657C209.96 76.3925 209.275 77.5108 208.307 77.7742C208.012 77.8546 207.691 77.8551 207.355 77.7633C205.916 77.3715 204.75 75.4392 204.75 73.4469C204.75 71.9201 205.435 70.8018 206.402 70.5384Z" fill="url(#paint75_linear_38_4277)"/>
<path d="M214.32 74.1653C214.365 74.1529 214.415 74.1529 214.467 74.1672L241.434 81.511C241.659 81.5723 241.841 81.8743 241.841 82.1857C241.841 82.4253 241.733 82.5989 241.581 82.6403C241.535 82.6526 241.486 82.6526 241.434 82.6384L214.467 75.2946C214.242 75.2332 214.06 74.9313 214.06 74.6199C214.06 74.3802 214.168 74.2067 214.32 74.1653Z" fill="url(#paint76_linear_38_4277)"/>
<path d="M214.32 76.9016C214.365 76.8893 214.415 76.8898 214.467 76.904L226.235 80.1088C226.46 80.1701 226.642 80.4716 226.642 80.783C226.642 81.0226 226.534 81.1967 226.381 81.238C226.336 81.2504 226.287 81.2499 226.235 81.2357L214.467 78.0309C214.242 77.9696 214.06 77.6681 214.06 77.3567C214.06 77.117 214.168 76.943 214.32 76.9016Z" fill="url(#paint77_linear_38_4277)"/>
<path d="M202.776 85.1883C202.937 85.1446 203.111 85.1441 203.294 85.194L247.529 97.2403C248.31 97.4533 248.944 98.5027 248.944 99.5849V108.66C248.944 109.489 248.572 110.096 248.046 110.239C247.886 110.283 247.711 110.284 247.529 110.234L203.294 98.1875C202.512 97.9745 201.879 96.9251 201.879 95.8429V86.7679C201.879 85.9386 202.251 85.3314 202.776 85.1883Z" fill="white"/>
<path d="M206.402 89.264C206.697 89.1836 207.018 89.1831 207.355 89.2749C208.793 89.6667 209.96 91.5991 209.96 93.5913C209.96 95.1181 209.275 96.2364 208.307 96.4998C208.012 96.5802 207.691 96.5807 207.355 96.4889C205.916 96.0971 204.75 94.1647 204.75 92.1725C204.75 90.6457 205.435 89.5274 206.402 89.264Z" fill="url(#paint78_linear_38_4277)"/>
<path d="M214.32 92.8911C214.365 92.8788 214.415 92.8788 214.467 92.893L241.434 100.237C241.659 100.298 241.841 100.6 241.841 100.912C241.841 101.151 241.733 101.325 241.581 101.366C241.535 101.378 241.486 101.378 241.434 101.364L214.467 94.0204C214.242 93.9591 214.06 93.6571 214.06 93.3457C214.06 93.106 214.168 92.9325 214.32 92.8911Z" fill="url(#paint79_linear_38_4277)"/>
<path d="M214.32 95.6275C214.365 95.6151 214.415 95.6156 214.467 95.6299L226.235 98.8346C226.46 98.8959 226.642 99.1974 226.642 99.5088C226.642 99.7485 226.534 99.9225 226.381 99.9639C226.336 99.9762 226.287 99.9757 226.235 99.9615L214.467 96.7567C214.242 96.6954 214.06 96.394 214.06 96.0825C214.06 95.8429 214.168 95.6688 214.32 95.6275Z" fill="url(#paint80_linear_38_4277)"/>
<path d="M202.776 103.914C202.937 103.871 203.111 103.87 203.294 103.92L247.529 115.966C248.31 116.179 248.944 117.229 248.944 118.311V127.386C248.944 128.215 248.572 128.822 248.046 128.966C247.886 129.009 247.711 129.01 247.529 128.96L203.294 116.914C202.512 116.701 201.879 115.651 201.879 114.569V105.494C201.879 104.665 202.251 104.058 202.776 103.914Z" fill="white"/>
<path d="M206.402 107.99C206.697 107.909 207.018 107.909 207.355 108.001C208.793 108.393 209.96 110.325 209.96 112.317C209.96 113.844 209.275 114.962 208.307 115.226C208.012 115.306 207.691 115.306 207.355 115.215C205.916 114.823 204.75 112.891 204.75 110.898C204.75 109.372 205.435 108.253 206.402 107.99Z" fill="url(#paint81_linear_38_4277)"/>
<path d="M214.32 111.617C214.365 111.605 214.415 111.605 214.467 111.619L241.434 118.963C241.659 119.024 241.841 119.326 241.841 119.638C241.841 119.877 241.733 120.051 241.581 120.092C241.535 120.105 241.486 120.105 241.434 120.09L214.467 112.746C214.242 112.685 214.06 112.383 214.06 112.072C214.06 111.832 214.168 111.659 214.32 111.617Z" fill="url(#paint82_linear_38_4277)"/>
<path d="M214.32 114.354C214.365 114.341 214.415 114.342 214.467 114.356L226.235 117.561C226.46 117.622 226.642 117.924 226.642 118.235C226.642 118.475 226.534 118.649 226.381 118.69C226.336 118.703 226.287 118.702 226.235 118.688L214.467 115.483C214.242 115.422 214.06 115.12 214.06 114.809C214.06 114.569 214.168 114.395 214.32 114.354Z" fill="url(#paint83_linear_38_4277)"/>
<path d="M202.776 122.639C202.937 122.596 203.111 122.595 203.294 122.645L247.529 134.691C248.31 134.904 248.944 135.954 248.944 137.036V146.111C248.944 146.94 248.572 147.548 248.046 147.691C247.886 147.734 247.711 147.735 247.529 147.685L203.294 135.639C202.512 135.426 201.879 134.376 201.879 133.294V124.219C201.879 123.39 202.251 122.783 202.776 122.639Z" fill="white"/>
<path d="M206.402 126.715C206.697 126.635 207.018 126.634 207.355 126.726C208.793 127.118 209.96 129.05 209.96 131.042C209.96 132.569 209.275 133.688 208.307 133.951C208.012 134.031 207.691 134.032 207.355 133.94C205.916 133.548 204.75 131.616 204.75 129.624C204.75 128.097 205.435 126.979 206.402 126.715Z" fill="url(#paint84_linear_38_4277)"/>
<path d="M214.32 130.342C214.365 130.33 214.415 130.33 214.467 130.344L241.434 137.688C241.659 137.749 241.841 138.051 241.841 138.363C241.841 138.602 241.733 138.776 241.581 138.817C241.535 138.83 241.486 138.83 241.434 138.815L214.467 131.472C214.242 131.41 214.06 131.108 214.06 130.797C214.06 130.557 214.168 130.384 214.32 130.342Z" fill="url(#paint85_linear_38_4277)"/>
<path d="M214.32 133.079C214.365 133.066 214.415 133.067 214.467 133.081L226.235 136.286C226.46 136.347 226.642 136.649 226.642 136.96C226.642 137.2 226.534 137.374 226.381 137.415C226.336 137.427 226.287 137.427 226.235 137.413L214.467 134.208C214.242 134.147 214.06 133.845 214.06 133.534C214.06 133.294 214.168 133.12 214.32 133.079Z" fill="url(#paint86_linear_38_4277)"/>
<path d="M202.776 141.366C202.937 141.322 203.111 141.321 203.294 141.371L247.529 153.418C248.31 153.631 248.944 154.68 248.944 155.762V164.837C248.944 165.666 248.572 166.274 248.046 166.417C247.886 166.46 247.711 166.461 247.529 166.411L203.294 154.365C202.512 154.152 201.879 153.102 201.879 152.02V142.945C201.879 142.116 202.251 141.509 202.776 141.366Z" fill="white"/>
<path d="M206.402 145.441C206.697 145.361 207.018 145.361 207.355 145.452C208.793 145.844 209.96 147.777 209.96 149.769C209.96 151.296 209.275 152.414 208.307 152.677C208.012 152.758 207.691 152.758 207.355 152.666C205.916 152.275 204.75 150.342 204.75 148.35C204.75 146.823 205.435 145.705 206.402 145.441Z" fill="url(#paint87_linear_38_4277)"/>
<path d="M214.32 149.068C214.365 149.056 214.415 149.056 214.467 149.07L241.434 156.414C241.659 156.475 241.841 156.777 241.841 157.089C241.841 157.328 241.733 157.502 241.581 157.543C241.535 157.556 241.486 157.556 241.434 157.541L214.467 150.198C214.242 150.136 214.06 149.834 214.06 149.523C214.06 149.283 214.168 149.11 214.32 149.068Z" fill="url(#paint88_linear_38_4277)"/>
<path d="M214.32 151.805C214.365 151.793 214.415 151.793 214.467 151.807L226.235 155.012C226.46 155.073 226.642 155.375 226.642 155.686C226.642 155.926 226.534 156.1 226.381 156.141C226.336 156.154 226.287 156.153 226.235 156.139L214.467 152.934C214.242 152.873 214.06 152.571 214.06 152.26C214.06 152.02 214.168 151.846 214.32 151.805Z" fill="url(#paint89_linear_38_4277)"/>
<g opacity="0.422135">
<path d="M277.228 70.9874C277.559 70.8971 277.919 70.8966 278.297 70.9993L335.132 86.4771C336.747 86.917 338.056 89.0856 338.056 91.3213V106.715C338.056 108.429 337.287 109.683 336.201 109.979C335.87 110.069 335.509 110.07 335.132 109.967L278.297 94.489C276.682 94.0492 275.373 91.8805 275.373 89.6448V74.2511C275.373 72.5375 276.142 71.2832 277.228 70.9874Z" fill="url(#paint90_linear_38_4277)"/>
<path d="M282.363 77.1635C283.007 76.9881 283.71 76.9866 284.444 77.1868C287.589 78.0432 290.138 82.2668 290.138 86.6213C290.138 89.9582 288.641 92.4022 286.526 92.978C285.882 93.1534 285.179 93.1549 284.444 92.9547C281.3 92.0984 278.751 87.8747 278.751 83.5202C278.751 80.1833 280.248 77.7393 282.363 77.1635Z" fill="white"/>
<path d="M281.612 80.9205C281.68 80.902 281.755 80.9015 281.833 80.9229L287.055 82.3451C287.389 82.4359 287.66 82.8843 287.66 83.3464V88.5458C287.66 88.9 287.501 89.1592 287.277 89.2205C287.208 89.2391 287.134 89.2395 287.055 89.2181L281.833 87.796C281.5 87.7052 281.229 87.2568 281.229 86.7946V81.5952C281.229 81.241 281.388 80.9819 281.612 80.9205Z" fill="url(#paint91_linear_38_4277)"/>
<path d="M281.612 80.9205C281.68 80.902 281.755 80.9015 281.833 80.9229L287.055 82.3451C287.389 82.4359 287.66 82.8843 287.66 83.3464V84.3055L284.714 86.0191C284.688 86.0343 284.66 86.0462 284.632 86.0538C284.483 86.0942 284.313 86.0291 284.175 85.8722L281.229 82.5543V81.5952C281.229 81.241 281.388 80.9819 281.612 80.9205Z" fill="url(#paint92_linear_38_4277)"/>
<path d="M297.802 84.4187C297.888 84.3954 297.981 84.3954 298.079 84.422L325.222 91.8134C325.641 91.9275 325.981 92.4909 325.981 93.072C325.981 93.517 325.782 93.8427 325.499 93.9197C325.413 93.943 325.32 93.943 325.222 93.9164L298.079 86.5251C297.66 86.411 297.32 85.8475 297.32 85.2665C297.32 84.8214 297.519 84.4957 297.802 84.4187Z" fill="url(#paint93_linear_38_4277)"/>
<path d="M297.802 90.1325C297.888 90.1092 297.981 90.1088 298.079 90.1354L309.575 93.266C309.995 93.3801 310.334 93.9435 310.334 94.5246C310.334 94.9696 310.135 95.2953 309.853 95.3723C309.767 95.3956 309.673 95.3961 309.575 95.3695L298.079 92.2389C297.66 92.1248 297.32 91.5614 297.32 90.9803C297.32 90.5353 297.52 90.2096 297.802 90.1325Z" fill="url(#paint94_linear_38_4277)"/>
</g>
<g opacity="0.577865">
<path d="M220.62 0.140975C220.95 0.050633 221.311 0.0501578 221.688 0.152861L278.524 15.6307C280.138 16.0705 281.447 18.2392 281.447 20.4749V35.8686C281.447 37.5822 280.678 38.8365 279.592 39.1323C279.262 39.2226 278.901 39.2231 278.524 39.1204L221.688 23.6425C220.074 23.2027 218.765 21.0341 218.765 18.7984V3.40467C218.765 1.69104 219.534 0.436723 220.62 0.140975Z" fill="url(#paint95_linear_38_4277)"/>
<path d="M225.754 6.31683C226.399 6.14138 227.102 6.13995 227.836 6.34013C230.98 7.19647 233.53 11.4202 233.53 15.7746C233.53 19.1115 232.033 21.5555 229.918 22.1313C229.273 22.3068 228.571 22.3082 227.836 22.108C224.692 21.2517 222.142 17.028 222.142 12.6735C222.142 9.33661 223.64 6.89264 225.754 6.31683Z" fill="white"/>
<path d="M225.004 10.0743C225.072 10.0558 225.147 10.0553 225.225 10.0767L230.447 11.4989C230.781 11.5897 231.052 12.0381 231.052 12.5002V17.6996C231.052 18.0539 230.893 18.313 230.668 18.3743C230.6 18.3929 230.525 18.3933 230.447 18.372L225.225 16.9498C224.891 16.859 224.621 16.4106 224.621 15.9484V10.7491C224.621 10.3948 224.779 10.1357 225.004 10.0743Z" fill="url(#paint96_linear_38_4277)"/>
<path d="M225.004 10.0743C225.072 10.0558 225.147 10.0553 225.225 10.0767L230.447 11.4989C230.781 11.5897 231.052 12.0381 231.052 12.5002V13.4593L228.106 15.1729C228.08 15.1881 228.052 15.2 228.024 15.2076C227.875 15.248 227.705 15.1829 227.566 15.026L224.621 11.7081V10.7491C224.621 10.3948 224.779 10.1357 225.004 10.0743Z" fill="url(#paint97_linear_38_4277)"/>
<path d="M241.193 13.5723C241.279 13.549 241.373 13.549 241.471 13.5756L268.613 20.9669C269.033 21.081 269.373 21.6445 269.373 22.2255C269.373 22.6706 269.173 22.9963 268.891 23.0733C268.805 23.0966 268.712 23.0966 268.613 23.07L241.471 15.6786C241.052 15.5645 240.712 15.0011 240.712 14.42C240.712 13.975 240.911 13.6493 241.193 13.5723Z" fill="url(#paint98_linear_38_4277)"/>
<path d="M241.194 19.2861C241.28 19.2628 241.373 19.2623 241.471 19.289L252.967 22.4195C253.387 22.5336 253.726 23.0971 253.726 23.6781C253.726 24.1232 253.526 24.4489 253.244 24.5259C253.158 24.5492 253.065 24.5497 252.967 24.523L241.471 21.3925C241.052 21.2784 240.712 20.7149 240.712 20.1339C240.712 19.6888 240.912 19.3631 241.194 19.2861Z" fill="url(#paint99_linear_38_4277)"/>
</g>
<path d="M114.464 126.3C114.464 125.422 115.696 124.544 118.156 123.874C123.078 122.534 131.058 122.534 135.98 123.874C138.443 124.545 139.672 125.424 139.672 126.303C139.672 127.18 138.44 128.058 135.98 128.728C131.058 130.069 123.078 130.069 118.156 128.728C115.693 128.058 114.464 127.179 114.464 126.3Z" fill="url(#paint100_linear_38_4277)"/>
<path d="M114.464 124.816C114.464 125.568 115.516 126.32 117.623 126.894C121.835 128.041 128.663 128.041 132.875 126.894C134.98 126.321 136.034 125.57 136.034 124.819V126.52C136.034 127.271 134.98 128.022 132.875 128.596C128.663 129.743 121.835 129.743 117.623 128.596C115.516 128.022 114.464 127.27 114.464 126.518V124.816Z" fill="url(#paint101_linear_38_4277)"/>
<path d="M114.464 124.816C114.464 124.065 115.518 123.314 117.623 122.74C121.835 121.593 128.663 121.593 132.875 122.74C134.982 123.314 136.034 124.066 136.034 124.818C136.034 125.569 134.98 126.321 132.875 126.894C128.663 128.041 121.835 128.041 117.623 126.894C115.516 126.32 114.464 125.568 114.464 124.816Z" fill="url(#paint102_linear_38_4277)"/>
<path d="M123.57 124.512L105.543 80.1331" stroke="url(#paint103_linear_38_4277)" stroke-width="3" stroke-linecap="round" stroke-linejoin="round"/>
<path d="M126.642 123.677L108.615 79.2983" stroke="url(#paint104_linear_38_4277)" stroke-width="3" stroke-linecap="round" stroke-linejoin="round"/>
<path d="M125.249 119.285C123.206 119.285 121.55 120.968 121.55 123.045V124.661C121.551 124.919 121.911 125.177 122.633 125.373C124.078 125.766 126.42 125.766 127.865 125.373C128.587 125.177 128.948 124.919 128.948 124.661V123.045C128.948 120.968 127.292 119.285 125.249 119.285Z" fill="url(#paint105_linear_38_4277)"/>
<path d="M111.457 80.1329C111.457 82.2093 109.801 83.8925 107.758 83.8925C105.715 83.8925 104.059 82.2093 104.059 80.1329C104.059 78.0565 105.715 76.3733 107.758 76.3733C109.801 76.3733 111.457 78.0565 111.457 80.1329Z" fill="url(#paint106_linear_38_4277)"/>
<path d="M108.898 79.9959L133.995 73.1604" stroke="url(#paint107_linear_38_4277)" stroke-width="3" stroke-linecap="round" stroke-linejoin="round"/>
<path d="M131.999 77.2801L120.664 74.4139C117.662 73.6551 115.833 70.5664 116.58 67.5152C117.327 64.464 120.366 62.6059 123.368 63.3647L134.704 66.2309C137.706 66.9898 139.534 70.0785 138.787 73.1297C138.041 76.1808 135.002 78.039 131.999 77.2801Z" fill="url(#paint108_linear_38_4277)"/>
<path d="M136.933 63.9777L142.683 65.2134L138.977 82.5337L132.942 80.8853C128.465 79.6628 125.76 75.0407 126.841 70.4594C127.921 65.8762 132.397 63.002 136.933 63.9777Z" fill="url(#paint109_linear_38_4277)"/>
<path d="M138.64 82.4577C136.348 81.8334 134.727 79.1826 134.727 75.5656C134.727 70.8441 137.491 66.2638 140.901 65.3351C141.698 65.1178 142.461 65.1202 143.161 65.3109C145.453 65.9352 147.074 68.586 147.074 72.203C147.074 76.9245 144.31 81.5048 140.901 82.4334C140.103 82.6507 139.34 82.6483 138.64 82.4577Z" fill="url(#paint110_linear_38_4277)"/>
<path d="M118.397 69.0936C118.447 69.0798 118.501 69.0803 118.559 69.096L123.007 70.3071C123.255 70.3746 123.455 70.7074 123.455 71.0502C123.455 71.3137 123.337 71.5053 123.17 71.5509C123.119 71.5647 123.065 71.5642 123.007 71.5485L118.559 70.3375C118.312 70.27 118.111 69.9371 118.111 69.5943C118.111 69.3309 118.23 69.1393 118.397 69.0936Z" fill="white"/>
<path d="M119.417 66.0385C119.476 66.0247 119.536 66.0251 119.592 66.0408L123.977 67.268C124.221 67.3365 124.316 67.6736 124.189 68.0207C124.092 68.2875 123.892 68.482 123.694 68.5281C123.635 68.5419 123.575 68.5414 123.519 68.5257L119.134 67.2985C118.89 67.23 118.795 66.8929 118.922 66.5458C119.019 66.279 119.219 66.0846 119.417 66.0385Z" fill="white"/>
<path d="M140.682 73.0759C140.682 70.8711 138.924 69.0837 136.755 69.0837C136.667 69.0837 136.581 69.0913 136.495 69.0971C135.402 70.9372 134.727 73.2337 134.727 75.5655C134.727 75.8917 134.744 76.2074 134.77 76.5169C135.353 76.865 136.03 77.068 136.755 77.068C138.924 77.068 140.682 75.2807 140.682 73.0759Z" fill="url(#paint111_linear_38_4277)"/>
<path d="M266.579 169.685C266.579 168.804 267.815 167.923 270.283 167.251C275.221 165.907 283.228 165.907 288.166 167.251C290.636 167.924 291.87 168.806 291.87 169.687C291.87 170.568 290.634 171.449 288.166 172.121C283.228 173.466 275.221 173.466 270.283 172.121C267.814 171.448 266.579 170.567 266.579 169.685Z" fill="url(#paint112_linear_38_4277)"/>
<path d="M266.579 149.638C266.579 150.312 267.522 150.985 269.409 151.499C273.182 152.527 279.299 152.527 283.072 151.499C284.958 150.986 285.901 150.313 285.901 149.64V169.709C285.901 170.383 284.958 171.055 283.072 171.569C279.299 172.597 273.182 172.597 269.409 171.569C267.522 171.055 266.579 170.381 266.579 169.708V149.638Z" fill="url(#paint113_linear_38_4277)"/>
<path d="M270.922 170.937L267.986 167.953C267.606 167.567 267.606 166.941 267.986 166.555C268.366 166.169 268.982 166.169 269.362 166.555L272.298 169.538C272.678 169.924 272.678 170.551 272.298 170.937C271.918 171.323 271.302 171.323 270.922 170.937Z" fill="url(#paint114_linear_38_4277)"/>
<path d="M270.922 158.485L267.986 155.502C267.606 155.116 267.606 154.489 267.986 154.103C268.366 153.717 268.982 153.717 269.362 154.103L272.298 157.087C272.678 157.473 272.678 158.099 272.298 158.485C271.918 158.871 271.302 158.871 270.922 158.485Z" fill="url(#paint115_linear_38_4277)"/>
<path d="M266.579 149.639C266.579 148.966 267.523 148.292 269.409 147.779C273.182 146.751 279.299 146.751 283.072 147.779C284.958 148.293 285.901 148.967 285.901 149.64C285.901 150.313 284.958 150.987 283.072 151.5C279.299 152.528 273.182 152.528 269.409 151.5C267.522 150.986 266.579 150.312 266.579 149.639Z" fill="url(#paint116_linear_38_4277)"/>
<path d="M283.072 150.633C279.298 149.606 273.182 149.606 269.409 150.633C268.914 150.768 268.492 150.915 268.128 151.068C268.491 151.221 268.917 151.366 269.409 151.5C273.182 152.527 279.298 152.527 283.072 151.5C283.563 151.366 283.989 151.221 284.353 151.068C283.988 150.915 283.566 150.768 283.072 150.633Z" fill="url(#paint117_linear_38_4277)"/>
<path d="M268.6 154.794L265.733 155.574C265.085 155.751 264.559 156.622 264.559 157.52V166.757C264.559 167.655 265.085 168.24 265.733 168.063L268.6 167.283" stroke="url(#paint118_linear_38_4277)" stroke-width="5" stroke-linecap="round" stroke-linejoin="round"/>
<path d="M97.2577 290.295C97.2577 290.295 96.9667 296.161 94.8466 301.424C92.7264 306.687 91.7576 309.385 91.4482 312.417C91.1389 315.45 93.7168 320.515 109.138 319.222C119.512 318.352 128.288 317.048 129.297 312.442C130.305 307.836 125.078 306.904 119.225 306.289C114.385 305.781 113.941 294.129 113.941 294.129L97.2577 290.295Z" fill="url(#paint119_linear_38_4277)"/>
<path d="M98.6542 246.532C98.1876 273.381 98.5934 290.797 98.5934 290.797C98.5934 290.797 106.945 296.096 117.912 294.801C117.912 294.801 138.207 224.121 141.133 214.165C144.059 204.208 144.084 186.74 128.219 182.866C109.493 178.295 99.3942 203.97 98.6542 246.532Z" fill="url(#paint120_linear_38_4277)"/>
<path d="M128.62 312.952C128.713 312.539 128.753 312.157 128.744 311.803C128.468 312.346 128.029 312.943 127.326 313.546C124.968 315.567 110.601 317.995 101.273 317.592C96.4636 317.385 93.3875 315.889 91.5326 314.487C92.1987 317.299 95.9716 320.618 108.805 319.527C118.998 318.66 127.621 317.381 128.62 312.952Z" fill="url(#paint121_linear_38_4277)"/>
<path d="M107.627 125.57C99.8017 121.096 73.9443 104.823 62.4833 99.3675C47.016 92.0054 36.3915 111.221 50.1668 118.859C72.2852 131.123 90.9423 140.089 99.2908 143.518C111.619 148.582 121.484 133.492 107.627 125.57Z" fill="url(#paint122_linear_38_4277)"/>
<path d="M143.933 127.029C143.933 127.029 156.106 126.44 158.38 125.74C160.654 125.04 162.821 124.649 163.629 125.791C163.629 125.791 169.328 125.663 170.222 125.922C171.116 126.182 171.76 127.614 171.76 127.614C171.76 127.614 175.739 128.661 176.917 129.04C178.095 129.419 179.214 130.258 179.521 130.94C179.829 131.621 181.196 134.708 180.998 135.057C180.8 135.405 179.414 135.277 178.5 134.321C177.585 133.366 176.71 131.917 176.71 131.917L173.539 131.199C173.539 131.199 182.631 137.375 183.009 137.809C183.386 138.244 182.419 139.344 180.373 138.541C178.326 137.738 175.046 135.691 175.046 135.691L170.185 134.869C170.185 134.869 165.409 135.599 163.969 136.726C162.529 137.852 165.796 138.893 167.509 139.571C169.222 140.249 170.971 140.768 170.613 142.118C170.14 143.903 168.013 143.076 165.374 142.404C162.735 141.732 159.399 140.82 155.947 138.739C152.496 136.659 147.1 136.711 147.1 136.711L143.933 127.029Z" fill="url(#paint123_linear_38_4277)"/>
<path d="M145.761 129.343C145.761 129.343 112.315 124.09 103.92 123.059C95.5237 122.027 89.9423 127.732 91.2131 133.696C92.4839 139.661 99.9491 143.499 112.859 143.407C125.769 143.315 150.134 141.836 150.134 141.836C150.134 141.836 152.382 133.573 145.761 129.343Z" fill="url(#paint124_linear_38_4277)"/>
<path d="M65.9376 89.2064C65.9376 89.2064 70.5754 85.0506 70.804 78.4151C70.9456 74.3141 68.3076 60.9646 75.3971 52.5763C82.4867 44.1879 99.8451 50.8879 103.196 56.4775C106.547 62.0671 107.16 66.9137 106.006 71.7677C104.852 76.6218 106.551 77.1664 107.225 78.5983C107.899 80.0301 104.28 80.6808 104.28 80.6808C104.28 80.6808 102.889 90.5189 98.1124 91.5927C95.7359 92.127 93.5695 91.0393 93.5695 91.0393L92.1964 99.2348L65.9376 89.2064Z" fill="url(#paint125_linear_38_4277)"/>
<path d="M69.0723 76.6898C64.5892 66.5536 66.4825 58.0551 69.1569 52.5369C72.5654 45.5048 78.2396 46.2883 78.2396 46.2883C78.2396 46.2883 81.612 41.39 91.3025 43.1293C99.9237 44.6769 109.669 48.6603 110.637 55.2381C111.473 60.9194 108.46 62.3075 106.206 62.4256C104.108 62.5354 102.381 62.9623 103.839 68.1289C105.296 73.2955 99.8578 74.8757 99.7124 78.2823C99.567 81.6889 103.361 80.0334 104.592 80.3244C105.823 80.6155 104.915 85.6041 104.121 87.3754C102.616 90.7297 99.7957 92.3392 96.5078 90.9856C92.4586 89.3182 95.9312 83.2463 97.163 77.5152C98.3947 71.7842 98.0357 69.7868 95.0842 68.5746C90.5827 66.7256 85.6622 72.5938 91.1347 78.0003C92.1851 79.038 93.075 82.2235 88.4919 85.0211C84.2421 87.6153 72.5802 84.6211 69.0723 76.6898Z" fill="url(#paint126_linear_38_4277)"/>
<path d="M45.3396 335.469C45.3396 332.287 50.3862 329.106 60.4713 326.679C80.6473 321.823 113.358 321.823 133.534 326.679C143.625 329.108 148.666 332.291 148.666 335.474C148.666 338.656 143.62 341.837 133.534 344.264C113.358 349.12 80.6473 349.12 60.4713 344.264C50.3805 341.835 45.3396 338.652 45.3396 335.469Z" fill="url(#paint127_linear_38_4277)"/>
<path d="M44.7946 330.482C44.7946 333.424 48.9125 336.366 57.1548 338.611C73.6349 343.099 100.355 343.099 116.835 338.611C125.073 336.368 129.195 333.428 129.195 330.487V335.183C129.195 338.124 125.073 341.064 116.835 343.307C100.355 347.795 73.6349 347.795 57.1548 343.307C48.9125 341.062 44.7946 338.12 44.7946 335.178V330.482Z" fill="url(#paint128_linear_38_4277)"/>
<path d="M44.7946 330.483C44.7946 327.542 48.9171 324.602 57.1548 322.359C73.6349 317.871 100.355 317.871 116.835 322.359C125.077 324.603 129.195 327.546 129.195 330.488C129.195 333.428 125.073 336.368 116.835 338.612C100.355 343.1 73.6349 343.1 57.1548 338.612C48.9125 336.367 44.7946 333.425 44.7946 330.483Z" fill="url(#paint129_linear_38_4277)"/>
<path d="M82.5004 220.613C82.5004 220.926 82.9392 221.239 83.8169 221.478C85.5722 221.956 88.4176 221.956 90.1729 221.478C91.0506 221.239 91.4894 220.926 91.4894 220.613V329.862C91.4894 330.175 91.0506 330.488 90.1729 330.727C88.4176 331.205 85.5722 331.205 83.8169 330.727C82.9392 330.488 82.5004 330.175 82.5004 329.862V220.613Z" fill="url(#paint130_linear_38_4277)"/>
<path d="M144.639 221.241C144.138 221.104 143.597 221.095 143.06 221.242L118.898 227.822C113.213 229.37 107.406 229.305 102.007 227.835L49.6572 213.578C55.0561 215.048 60.8629 215.114 66.5476 213.565L90.71 206.985C91.247 206.839 91.7879 206.848 92.2885 206.984L144.639 221.241Z" fill="url(#paint131_linear_38_4277)"/>
<path d="M179.007 321.123H235.905V331.902H179.007V321.123Z" fill="url(#paint132_linear_38_4277)"/>
<path d="M99.6251 220.613C83.7949 225.415 47.1553 226.832 38.1494 196.366C38.1494 196.366 92.8579 184.811 106.269 181.176C121.187 177.132 139.32 175.784 141.719 190.797C144.829 210.258 118.114 215.003 99.6251 220.613Z" fill="url(#paint133_linear_38_4277)"/>
<path d="M165.152 304.782C165.152 304.782 165.629 313.35 163.876 320.428C161.896 328.424 164.957 331.214 168.787 331.524C180.579 332.478 196.601 331.516 205.595 329.83C211.148 328.788 210.312 320.731 201.618 319.399C184.08 316.712 181.742 304.887 181.742 304.887L165.152 304.782Z" fill="url(#paint134_linear_38_4277)"/>
<path d="M163.269 325.467C165.346 331.33 198.987 328.572 203.147 327.794C205.076 327.432 209.271 326.339 208.904 324.576C209.596 326.937 208.43 329.298 205.595 329.83C196.601 331.517 180.579 332.479 168.788 331.524C165.909 331.291 163.466 329.656 163.269 325.467Z" fill="url(#paint135_linear_38_4277)"/>
<path d="M49.6572 196.366C49.6572 196.366 56.5195 227.492 93.743 226.848C118.124 226.426 144.708 216.559 146.9 217.92C149.092 219.281 142.919 237.351 151.985 264.167C160.65 289.793 164.824 307.541 164.824 307.541C164.824 307.541 172.975 310.797 182.33 305.803C182.33 305.803 177.981 227.495 177.422 216.759C176.863 206.023 174.443 185.981 149.825 185.981C135.672 185.981 49.6572 196.366 49.6572 196.366Z" fill="url(#paint136_linear_38_4277)"/>
<path d="M56.6425 98.5273C56.6425 98.5273 59.5594 91.969 62.0974 90.592C67.2797 87.78 85.2816 89.8992 90.4638 93.0873C95.6461 96.2754 97.2826 104.591 97.2826 104.591L56.6425 98.5273Z" fill="url(#paint137_linear_38_4277)"/>
<path d="M113.347 189.753C113.347 189.753 98.965 211.646 61.6783 209.177C40.5508 207.777 35.1954 197.077 37.1393 193.126C39.0832 189.176 48.9209 157.819 44.5475 128.674C40.1742 99.5291 51.2722 95.1428 60.8484 93.6384C70.4245 92.134 110.729 94.5385 109.21 117.124C107.697 139.632 97.1474 163.931 113.347 189.753Z" fill="url(#paint138_linear_38_4277)"/>
<path d="M56.192 173.265C55.3846 173.045 54.4919 173.161 53.7364 173.661C52.3249 174.595 51.9254 176.515 52.8442 177.95L78.0335 217.278C83.3865 225.636 91.4338 231.377 100.434 233.828L48.0844 219.572C39.0837 217.121 31.0364 211.38 25.6834 203.022L0.494111 163.694C-0.424724 162.259 -0.0251891 160.339 1.38628 159.405C2.14183 158.905 3.03447 158.789 3.84196 159.009L56.192 173.265Z" fill="url(#paint139_linear_38_4277)"/>
<path d="M56.1921 173.265C56.8929 173.456 57.5296 173.901 57.9567 174.568L83.1456 213.896C87.6532 220.933 94.4279 225.771 102.007 227.835C107.406 229.305 113.213 229.37 118.897 227.822L143.06 221.242C143.597 221.095 144.138 221.104 144.639 221.241C145.656 221.518 146.503 222.325 146.795 223.434C147.231 225.087 146.266 226.787 144.639 227.23L120.476 233.81C117.13 234.721 113.749 235.162 110.409 235.162C107.015 235.162 103.663 234.708 100.435 233.828C91.4338 231.377 83.3865 225.636 78.0335 217.278L52.8442 177.95C51.9254 176.515 52.3249 174.595 53.7364 173.661C54.4919 173.161 55.3846 173.045 56.1921 173.265Z" fill="url(#paint140_linear_38_4277)"/>
<path d="M192.808 150.919C192.808 150.919 189.707 156.371 189.51 157.989C189.313 159.606 190.474 160.217 190.957 159.987C191.44 159.757 196.348 152.976 196.348 152.976L192.808 150.919Z" fill="url(#paint141_linear_38_4277)"/>
<path d="M171.431 145.154C171.431 145.154 179.685 143.812 185.898 142.406C192.112 141.001 193.608 142.152 194.913 143.235C196.219 144.318 195.575 145.703 195.575 145.703C195.575 145.703 198.367 146.72 197.619 149.147C197.619 149.147 200.812 150.575 199.161 152.747C199.161 152.747 201.094 154.178 199.596 156.282C198.098 158.387 195.867 161.901 194.771 161.775C193.675 161.649 193.188 160.068 194.033 158.496C194.878 156.924 195.648 155.116 195.648 155.116C195.648 155.116 192.951 156.162 190.584 156.637C188.217 157.113 182.779 154.855 177.556 155.505L171.431 145.154Z" fill="url(#paint142_linear_38_4277)"/>
<path d="M172.906 147.534C172.906 147.534 138.137 144.15 129.771 143.789C121.404 143.428 116.927 150.202 118.877 156.37C120.826 162.537 129.579 166.383 142.247 165.173C154.915 163.963 178.67 160.304 178.67 160.304C178.67 160.304 179.906 151.414 172.906 147.534Z" fill="url(#paint143_linear_38_4277)"/>
<path d="M139.325 149.093C134.015 141.783 111.683 115.309 103.024 105.768C94.3652 96.2277 72.981 104.973 88.0188 125.403C103.057 145.833 116.763 156.681 123.535 162.967C133.537 172.249 150.767 164.845 139.325 149.093Z" fill="url(#paint144_linear_38_4277)"/>
<path d="M231.532 340.141C231.532 337.6 235.094 335.059 242.214 333.12C256.455 329.242 279.547 329.242 293.789 333.12C300.912 335.06 304.47 337.603 304.47 340.145C304.47 342.686 300.908 345.227 293.789 347.166C279.547 351.044 256.455 351.044 242.214 347.166C235.091 345.226 231.532 342.683 231.532 340.141Z" fill="url(#paint145_linear_38_4277)"/>
<path d="M231.532 282.988C231.532 284.93 234.251 286.873 239.693 288.355C250.574 291.318 268.216 291.318 279.097 288.355C284.536 286.874 287.257 284.933 287.257 282.991V340.209C287.257 342.151 284.536 344.092 279.097 345.573C268.216 348.537 250.574 348.537 239.693 345.573C234.251 344.091 231.532 342.148 231.532 340.206V282.988Z" fill="url(#paint146_linear_38_4277)"/>
<path d="M231.532 282.988C231.532 281.047 234.254 279.105 239.693 277.624C250.574 274.661 268.216 274.661 279.097 277.624C284.539 279.106 287.257 281.049 287.257 282.991C287.257 284.932 284.536 286.874 279.097 288.355C268.216 291.318 250.574 291.318 239.693 288.355C234.251 286.873 231.532 284.93 231.532 282.988Z" fill="url(#paint147_linear_38_4277)"/>
<path d="M279.097 285.856C268.216 282.893 250.574 282.893 239.693 285.856C238.266 286.244 237.051 286.667 235.999 287.11C237.047 287.551 238.275 287.969 239.693 288.355C250.574 291.318 268.216 291.318 279.097 288.355C280.514 287.969 281.742 287.551 282.791 287.11C281.739 286.667 280.523 286.244 279.097 285.856Z" fill="url(#paint148_linear_38_4277)"/>
<path d="M259.332 290.64C259.332 290.64 261.369 248.236 272.953 229.236C286.965 206.255 316.88 219.35 315.832 240.667C314.785 261.985 313.388 275.887 317.927 279.285C317.927 279.285 299.47 265.692 291.417 250.553C283.364 235.415 283.945 219.968 295.816 218.835C295.816 218.835 284.185 214.008 274.403 230.575C264.621 247.143 261.834 290.64 261.834 290.64C261.834 290.64 261.491 290.745 259.332 290.64Z" fill="url(#paint149_linear_38_4277)"/>
<path d="M259.78 287.294C259.78 287.294 254.242 247.858 221.937 252.312C189.631 256.767 185.955 288.8 194.246 308.843C194.246 308.843 193.838 302.544 199.184 296.962C204.531 291.381 201.461 286.048 200.974 280.812C200.487 275.577 236.898 280.234 228.899 253.615C228.899 253.615 253.116 252.451 257.22 287.859L259.78 287.294Z" fill="url(#paint150_linear_38_4277)"/>
<path d="M261.845 289.834C261.845 289.834 261.068 260.63 246.79 221.634C246.79 221.634 255.912 202.181 245.011 193.713C234.11 185.245 216.51 184.144 213.716 173.8C210.921 163.457 194.447 158.839 179.514 164.33C179.514 164.33 178.728 175.265 190.897 182.392C199.71 187.553 204.648 192.705 206.202 206.382C208.178 223.768 226.149 239.953 245.326 223.689C245.326 223.689 258.282 252.804 259.319 289.901L261.845 289.834Z" fill="url(#paint151_linear_38_4277)"/>
<path d="M179.526 164.184C179.526 164.184 178.742 175.084 190.87 182.187C199.654 187.332 204.576 192.466 206.124 206.099C208.093 223.429 226.004 239.561 245.117 223.35C245.117 223.35 224.163 180.155 179.526 164.184Z" fill="url(#paint152_linear_38_4277)"/>
<path d="M278.774 197.449C278.774 197.449 275.284 184.897 288.502 180.533C301.721 176.168 312.028 183.045 316.604 179.644C321.181 176.244 338.167 186.052 344.066 174.282C344.066 174.282 343.639 193.622 317.775 196.972C291.911 200.322 278.774 197.449 278.774 197.449Z" fill="url(#paint153_linear_38_4277)"/>
<path d="M259.51 286.175C259.51 286.175 258.03 219.813 273.46 198.887C288.89 177.961 336.373 203.148 344.008 175.45C344.008 175.45 344.312 192.924 339.668 199.314C335.024 205.705 329.204 201.415 326.048 208.132C322.891 214.849 287.538 224.215 275.633 199.828C275.633 199.828 268.492 208.426 264.033 230.368C259.575 252.309 261.028 286.509 261.028 286.509L259.51 286.175Z" fill="url(#paint154_linear_38_4277)"/>
<defs>
<linearGradient id="paint0_linear_38_4277" x1="227.532" y1="261.675" x2="227.532" y2="110.308" gradientUnits="userSpaceOnUse">
<stop stop-color="white"/>
<stop offset="0.5" stop-color="#D6DEEF"/>
<stop offset="1" stop-color="#AEBDDF"/>
</linearGradient>
<linearGradient id="paint1_linear_38_4277" x1="322.971" y1="225.538" x2="322.971" y2="123.313" gradientUnits="userSpaceOnUse">
<stop stop-color="white"/>
<stop offset="0.5" stop-color="#D6DEEF"/>
<stop offset="1" stop-color="#AEBDDF"/>
</linearGradient>
<linearGradient id="paint2_linear_38_4277" x1="48.3502" y1="204.142" x2="48.3502" y2="110.032" gradientUnits="userSpaceOnUse">
<stop stop-color="white"/>
<stop offset="0.5" stop-color="#D6DEEF"/>
<stop offset="1" stop-color="#AEBDDF"/>
</linearGradient>
<linearGradient id="paint3_linear_38_4277" x1="185.894" y1="228.867" x2="185.894" y2="180.256" gradientUnits="userSpaceOnUse">
<stop stop-color="white"/>
<stop offset="0.5" stop-color="#D6DEEF"/>
<stop offset="1" stop-color="#AEBDDF"/>
</linearGradient>
<linearGradient id="paint4_linear_38_4277" x1="185.894" y1="188.451" x2="185.894" y2="15.0402" gradientUnits="userSpaceOnUse">
<stop stop-color="white"/>
<stop offset="0.5" stop-color="#D6DEEF"/>
<stop offset="1" stop-color="#AEBDDF"/>
</linearGradient>
<linearGradient id="paint5_linear_38_4277" x1="253.402" y1="148.271" x2="221.452" y2="140.364" gradientUnits="userSpaceOnUse">
<stop stop-color="white" stop-opacity="0"/>
<stop offset="0.5" stop-color="#D6DEEF" stop-opacity="0.5"/>
<stop offset="1" stop-color="#AEBDDF"/>
</linearGradient>
<linearGradient id="paint6_linear_38_4277" x1="206.479" y1="148.51" x2="206.479" y2="115.479" gradientUnits="userSpaceOnUse">
<stop stop-color="#ACBDDE"/>
<stop offset="0.5" stop-color="#6D7E9D"/>
<stop offset="1" stop-color="#2E405C"/>
</linearGradient>
<linearGradient id="paint7_linear_38_4277" x1="206.011" y1="146.608" x2="206.011" y2="125.746" gradientUnits="userSpaceOnUse">
<stop stop-color="white"/>
<stop offset="0.5" stop-color="#D6DEEF"/>
<stop offset="1" stop-color="#AEBDDF"/>
</linearGradient>
<linearGradient id="paint8_linear_38_4277" x1="215.836" y1="-11.7266" x2="215.836" y2="125.39" gradientUnits="userSpaceOnUse">
<stop stop-color="white"/>
<stop offset="0.5" stop-color="#D6DEEF"/>
<stop offset="1" stop-color="#AEBDDF"/>
</linearGradient>
<linearGradient id="paint9_linear_38_4277" x1="213.497" y1="-26.942" x2="213.497" y2="129.382" gradientUnits="userSpaceOnUse">
<stop stop-color="#ACBDDE"/>
<stop offset="0.5" stop-color="#6D7E9D"/>
<stop offset="1" stop-color="#2E405C"/>
</linearGradient>
<linearGradient id="paint10_linear_38_4277" x1="213.029" y1="50.0859" x2="213.029" y2="164.335" gradientUnits="userSpaceOnUse">
<stop stop-color="white"/>
<stop offset="0.5" stop-color="#D6DEEF"/>
<stop offset="1" stop-color="#AEBDDF"/>
</linearGradient>
<linearGradient id="paint11_linear_38_4277" x1="227.064" y1="179.416" x2="217.968" y2="156.928" gradientUnits="userSpaceOnUse">
<stop stop-color="white" stop-opacity="0"/>
<stop offset="0.5" stop-color="#D6DEEF" stop-opacity="0.5"/>
<stop offset="1" stop-color="#AEBDDF"/>
</linearGradient>
<linearGradient id="paint12_linear_38_4277" x1="179.345" y1="167.53" x2="179.345" y2="139.252" gradientUnits="userSpaceOnUse">
<stop stop-color="#ACBDDE"/>
<stop offset="0.5" stop-color="#6D7E9D"/>
<stop offset="1" stop-color="#2E405C"/>
</linearGradient>
<linearGradient id="paint13_linear_38_4277" x1="179.345" y1="166.103" x2="179.345" y2="140.594" gradientUnits="userSpaceOnUse">
<stop stop-color="white"/>
<stop offset="0.5" stop-color="#D6DEEF"/>
<stop offset="1" stop-color="#AEBDDF"/>
</linearGradient>
<linearGradient id="paint14_linear_38_4277" x1="152.678" y1="117.129" x2="152.678" y2="199.356" gradientUnits="userSpaceOnUse">
<stop stop-color="#ACBDDE"/>
<stop offset="0.5" stop-color="#6D7E9D"/>
<stop offset="1" stop-color="#2E405C"/>
</linearGradient>
<linearGradient id="paint15_linear_38_4277" x1="157.356" y1="117.129" x2="157.356" y2="199.356" gradientUnits="userSpaceOnUse">
<stop stop-color="#ACBDDE"/>
<stop offset="0.5" stop-color="#6D7E9D"/>
<stop offset="1" stop-color="#2E405C"/>
</linearGradient>
<linearGradient id="paint16_linear_38_4277" x1="162.035" y1="117.129" x2="162.035" y2="199.356" gradientUnits="userSpaceOnUse">
<stop stop-color="#ACBDDE"/>
<stop offset="0.5" stop-color="#6D7E9D"/>
<stop offset="1" stop-color="#2E405C"/>
</linearGradient>
<linearGradient id="paint17_linear_38_4277" x1="166.713" y1="117.129" x2="166.713" y2="199.357" gradientUnits="userSpaceOnUse">
<stop stop-color="#ACBDDE"/>
<stop offset="0.5" stop-color="#6D7E9D"/>
<stop offset="1" stop-color="#2E405C"/>
</linearGradient>
<linearGradient id="paint18_linear_38_4277" x1="171.391" y1="117.129" x2="171.391" y2="199.357" gradientUnits="userSpaceOnUse">
<stop stop-color="#ACBDDE"/>
<stop offset="0.5" stop-color="#6D7E9D"/>
<stop offset="1" stop-color="#2E405C"/>
</linearGradient>
<linearGradient id="paint19_linear_38_4277" x1="176.07" y1="117.129" x2="176.07" y2="199.356" gradientUnits="userSpaceOnUse">
<stop stop-color="#ACBDDE"/>
<stop offset="0.5" stop-color="#6D7E9D"/>
<stop offset="1" stop-color="#2E405C"/>
</linearGradient>
<linearGradient id="paint20_linear_38_4277" x1="180.748" y1="117.129" x2="180.748" y2="199.356" gradientUnits="userSpaceOnUse">
<stop stop-color="#ACBDDE"/>
<stop offset="0.5" stop-color="#6D7E9D"/>
<stop offset="1" stop-color="#2E405C"/>
</linearGradient>
<linearGradient id="paint21_linear_38_4277" x1="185.427" y1="117.129" x2="185.427" y2="199.356" gradientUnits="userSpaceOnUse">
<stop stop-color="#ACBDDE"/>
<stop offset="0.5" stop-color="#6D7E9D"/>
<stop offset="1" stop-color="#2E405C"/>
</linearGradient>
<linearGradient id="paint22_linear_38_4277" x1="190.105" y1="117.129" x2="190.105" y2="199.357" gradientUnits="userSpaceOnUse">
<stop stop-color="#ACBDDE"/>
<stop offset="0.5" stop-color="#6D7E9D"/>
<stop offset="1" stop-color="#2E405C"/>
</linearGradient>
<linearGradient id="paint23_linear_38_4277" x1="194.783" y1="117.129" x2="194.783" y2="199.356" gradientUnits="userSpaceOnUse">
<stop stop-color="#ACBDDE"/>
<stop offset="0.5" stop-color="#6D7E9D"/>
<stop offset="1" stop-color="#2E405C"/>
</linearGradient>
<linearGradient id="paint24_linear_38_4277" x1="199.462" y1="117.129" x2="199.462" y2="199.356" gradientUnits="userSpaceOnUse">
<stop stop-color="#ACBDDE"/>
<stop offset="0.5" stop-color="#6D7E9D"/>
<stop offset="1" stop-color="#2E405C"/>
</linearGradient>
<linearGradient id="paint25_linear_38_4277" x1="204.14" y1="117.129" x2="204.14" y2="199.356" gradientUnits="userSpaceOnUse">
<stop stop-color="#ACBDDE"/>
<stop offset="0.5" stop-color="#6D7E9D"/>
<stop offset="1" stop-color="#2E405C"/>
</linearGradient>
<linearGradient id="paint26_linear_38_4277" x1="208.818" y1="117.129" x2="208.818" y2="199.357" gradientUnits="userSpaceOnUse">
<stop stop-color="#ACBDDE"/>
<stop offset="0.5" stop-color="#6D7E9D"/>
<stop offset="1" stop-color="#2E405C"/>
</linearGradient>
<linearGradient id="paint27_linear_38_4277" x1="213.497" y1="117.129" x2="213.497" y2="199.357" gradientUnits="userSpaceOnUse">
<stop stop-color="#ACBDDE"/>
<stop offset="0.5" stop-color="#6D7E9D"/>
<stop offset="1" stop-color="#2E405C"/>
</linearGradient>
<linearGradient id="paint28_linear_38_4277" x1="218.175" y1="117.129" x2="218.175" y2="199.356" gradientUnits="userSpaceOnUse">
<stop stop-color="#ACBDDE"/>
<stop offset="0.5" stop-color="#6D7E9D"/>
<stop offset="1" stop-color="#2E405C"/>
</linearGradient>
<linearGradient id="paint29_linear_38_4277" x1="146.596" y1="117.129" x2="146.596" y2="199.356" gradientUnits="userSpaceOnUse">
<stop stop-color="#ACBDDE"/>
<stop offset="0.5" stop-color="#6D7E9D"/>
<stop offset="1" stop-color="#2E405C"/>
</linearGradient>
<linearGradient id="paint30_linear_38_4277" x1="153.146" y1="117.129" x2="153.146" y2="199.356" gradientUnits="userSpaceOnUse">
<stop stop-color="#ACBDDE"/>
<stop offset="0.5" stop-color="#6D7E9D"/>
<stop offset="1" stop-color="#2E405C"/>
</linearGradient>
<linearGradient id="paint31_linear_38_4277" x1="157.824" y1="117.129" x2="157.824" y2="199.356" gradientUnits="userSpaceOnUse">
<stop stop-color="#ACBDDE"/>
<stop offset="0.5" stop-color="#6D7E9D"/>
<stop offset="1" stop-color="#2E405C"/>
</linearGradient>
<linearGradient id="paint32_linear_38_4277" x1="162.503" y1="117.129" x2="162.503" y2="199.356" gradientUnits="userSpaceOnUse">
<stop stop-color="#ACBDDE"/>
<stop offset="0.5" stop-color="#6D7E9D"/>
<stop offset="1" stop-color="#2E405C"/>
</linearGradient>
<linearGradient id="paint33_linear_38_4277" x1="167.181" y1="117.129" x2="167.181" y2="199.357" gradientUnits="userSpaceOnUse">
<stop stop-color="#ACBDDE"/>
<stop offset="0.5" stop-color="#6D7E9D"/>
<stop offset="1" stop-color="#2E405C"/>
</linearGradient>
<linearGradient id="paint34_linear_38_4277" x1="171.859" y1="117.129" x2="171.859" y2="199.356" gradientUnits="userSpaceOnUse">
<stop stop-color="#ACBDDE"/>
<stop offset="0.5" stop-color="#6D7E9D"/>
<stop offset="1" stop-color="#2E405C"/>
</linearGradient>
<linearGradient id="paint35_linear_38_4277" x1="176.538" y1="117.129" x2="176.538" y2="199.357" gradientUnits="userSpaceOnUse">
<stop stop-color="#ACBDDE"/>
<stop offset="0.5" stop-color="#6D7E9D"/>
<stop offset="1" stop-color="#2E405C"/>
</linearGradient>
<linearGradient id="paint36_linear_38_4277" x1="181.216" y1="117.129" x2="181.216" y2="199.356" gradientUnits="userSpaceOnUse">
<stop stop-color="#ACBDDE"/>
<stop offset="0.5" stop-color="#6D7E9D"/>
<stop offset="1" stop-color="#2E405C"/>
</linearGradient>
<linearGradient id="paint37_linear_38_4277" x1="185.894" y1="117.129" x2="185.894" y2="199.357" gradientUnits="userSpaceOnUse">
<stop stop-color="#ACBDDE"/>
<stop offset="0.5" stop-color="#6D7E9D"/>
<stop offset="1" stop-color="#2E405C"/>
</linearGradient>
<linearGradient id="paint38_linear_38_4277" x1="190.573" y1="117.129" x2="190.573" y2="199.357" gradientUnits="userSpaceOnUse">
<stop stop-color="#ACBDDE"/>
<stop offset="0.5" stop-color="#6D7E9D"/>
<stop offset="1" stop-color="#2E405C"/>
</linearGradient>
<linearGradient id="paint39_linear_38_4277" x1="195.251" y1="117.129" x2="195.251" y2="199.356" gradientUnits="userSpaceOnUse">
<stop stop-color="#ACBDDE"/>
<stop offset="0.5" stop-color="#6D7E9D"/>
<stop offset="1" stop-color="#2E405C"/>
</linearGradient>
<linearGradient id="paint40_linear_38_4277" x1="199.93" y1="117.129" x2="199.93" y2="199.356" gradientUnits="userSpaceOnUse">
<stop stop-color="#ACBDDE"/>
<stop offset="0.5" stop-color="#6D7E9D"/>
<stop offset="1" stop-color="#2E405C"/>
</linearGradient>
<linearGradient id="paint41_linear_38_4277" x1="206.947" y1="117.129" x2="206.947" y2="199.356" gradientUnits="userSpaceOnUse">
<stop stop-color="#ACBDDE"/>
<stop offset="0.5" stop-color="#6D7E9D"/>
<stop offset="1" stop-color="#2E405C"/>
</linearGradient>
<linearGradient id="paint42_linear_38_4277" x1="149.403" y1="117.129" x2="149.403" y2="199.357" gradientUnits="userSpaceOnUse">
<stop stop-color="#ACBDDE"/>
<stop offset="0.5" stop-color="#6D7E9D"/>
<stop offset="1" stop-color="#2E405C"/>
</linearGradient>
<linearGradient id="paint43_linear_38_4277" x1="155.485" y1="117.129" x2="155.485" y2="199.357" gradientUnits="userSpaceOnUse">
<stop stop-color="#ACBDDE"/>
<stop offset="0.5" stop-color="#6D7E9D"/>
<stop offset="1" stop-color="#2E405C"/>
</linearGradient>
<linearGradient id="paint44_linear_38_4277" x1="160.163" y1="117.129" x2="160.163" y2="199.356" gradientUnits="userSpaceOnUse">
<stop stop-color="#ACBDDE"/>
<stop offset="0.5" stop-color="#6D7E9D"/>
<stop offset="1" stop-color="#2E405C"/>
</linearGradient>
<linearGradient id="paint45_linear_38_4277" x1="164.842" y1="117.129" x2="164.842" y2="199.356" gradientUnits="userSpaceOnUse">
<stop stop-color="#ACBDDE"/>
<stop offset="0.5" stop-color="#6D7E9D"/>
<stop offset="1" stop-color="#2E405C"/>
</linearGradient>
<linearGradient id="paint46_linear_38_4277" x1="169.52" y1="117.129" x2="169.52" y2="199.356" gradientUnits="userSpaceOnUse">
<stop stop-color="#ACBDDE"/>
<stop offset="0.5" stop-color="#6D7E9D"/>
<stop offset="1" stop-color="#2E405C"/>
</linearGradient>
<linearGradient id="paint47_linear_38_4277" x1="174.198" y1="117.129" x2="174.198" y2="199.357" gradientUnits="userSpaceOnUse">
<stop stop-color="#ACBDDE"/>
<stop offset="0.5" stop-color="#6D7E9D"/>
<stop offset="1" stop-color="#2E405C"/>
</linearGradient>
<linearGradient id="paint48_linear_38_4277" x1="178.877" y1="117.129" x2="178.877" y2="199.357" gradientUnits="userSpaceOnUse">
<stop stop-color="#ACBDDE"/>
<stop offset="0.5" stop-color="#6D7E9D"/>
<stop offset="1" stop-color="#2E405C"/>
</linearGradient>
<linearGradient id="paint49_linear_38_4277" x1="183.555" y1="117.129" x2="183.555" y2="199.357" gradientUnits="userSpaceOnUse">
<stop stop-color="#ACBDDE"/>
<stop offset="0.5" stop-color="#6D7E9D"/>
<stop offset="1" stop-color="#2E405C"/>
</linearGradient>
<linearGradient id="paint50_linear_38_4277" x1="188.234" y1="117.129" x2="188.234" y2="199.356" gradientUnits="userSpaceOnUse">
<stop stop-color="#ACBDDE"/>
<stop offset="0.5" stop-color="#6D7E9D"/>
<stop offset="1" stop-color="#2E405C"/>
</linearGradient>
<linearGradient id="paint51_linear_38_4277" x1="192.912" y1="117.129" x2="192.912" y2="199.357" gradientUnits="userSpaceOnUse">
<stop stop-color="#ACBDDE"/>
<stop offset="0.5" stop-color="#6D7E9D"/>
<stop offset="1" stop-color="#2E405C"/>
</linearGradient>
<linearGradient id="paint52_linear_38_4277" x1="197.59" y1="117.129" x2="197.59" y2="199.357" gradientUnits="userSpaceOnUse">
<stop stop-color="#ACBDDE"/>
<stop offset="0.5" stop-color="#6D7E9D"/>
<stop offset="1" stop-color="#2E405C"/>
</linearGradient>
<linearGradient id="paint53_linear_38_4277" x1="202.269" y1="117.129" x2="202.269" y2="199.356" gradientUnits="userSpaceOnUse">
<stop stop-color="#ACBDDE"/>
<stop offset="0.5" stop-color="#6D7E9D"/>
<stop offset="1" stop-color="#2E405C"/>
</linearGradient>
<linearGradient id="paint54_linear_38_4277" x1="206.947" y1="117.129" x2="206.947" y2="199.356" gradientUnits="userSpaceOnUse">
<stop stop-color="#ACBDDE"/>
<stop offset="0.5" stop-color="#6D7E9D"/>
<stop offset="1" stop-color="#2E405C"/>
</linearGradient>
<linearGradient id="paint55_linear_38_4277" x1="212.561" y1="117.129" x2="212.561" y2="199.356" gradientUnits="userSpaceOnUse">
<stop stop-color="#ACBDDE"/>
<stop offset="0.5" stop-color="#6D7E9D"/>
<stop offset="1" stop-color="#2E405C"/>
</linearGradient>
<linearGradient id="paint56_linear_38_4277" x1="140.982" y1="117.129" x2="140.982" y2="199.357" gradientUnits="userSpaceOnUse">
<stop stop-color="#ACBDDE"/>
<stop offset="0.5" stop-color="#6D7E9D"/>
<stop offset="1" stop-color="#2E405C"/>
</linearGradient>
<linearGradient id="paint57_linear_38_4277" x1="146.596" y1="117.129" x2="146.596" y2="199.357" gradientUnits="userSpaceOnUse">
<stop stop-color="#ACBDDE"/>
<stop offset="0.5" stop-color="#6D7E9D"/>
<stop offset="1" stop-color="#2E405C"/>
</linearGradient>
<linearGradient id="paint58_linear_38_4277" x1="151.274" y1="117.129" x2="151.274" y2="199.356" gradientUnits="userSpaceOnUse">
<stop stop-color="#ACBDDE"/>
<stop offset="0.5" stop-color="#6D7E9D"/>
<stop offset="1" stop-color="#2E405C"/>
</linearGradient>
<linearGradient id="paint59_linear_38_4277" x1="165.31" y1="117.129" x2="165.31" y2="199.357" gradientUnits="userSpaceOnUse">
<stop stop-color="#ACBDDE"/>
<stop offset="0.5" stop-color="#6D7E9D"/>
<stop offset="1" stop-color="#2E405C"/>
</linearGradient>
<linearGradient id="paint60_linear_38_4277" x1="179.345" y1="117.129" x2="179.345" y2="199.356" gradientUnits="userSpaceOnUse">
<stop stop-color="#ACBDDE"/>
<stop offset="0.5" stop-color="#6D7E9D"/>
<stop offset="1" stop-color="#2E405C"/>
</linearGradient>
<linearGradient id="paint61_linear_38_4277" x1="184.023" y1="117.129" x2="184.023" y2="199.357" gradientUnits="userSpaceOnUse">
<stop stop-color="#ACBDDE"/>
<stop offset="0.5" stop-color="#6D7E9D"/>
<stop offset="1" stop-color="#2E405C"/>
</linearGradient>
<linearGradient id="paint62_linear_38_4277" x1="188.701" y1="117.129" x2="188.701" y2="199.357" gradientUnits="userSpaceOnUse">
<stop stop-color="#ACBDDE"/>
<stop offset="0.5" stop-color="#6D7E9D"/>
<stop offset="1" stop-color="#2E405C"/>
</linearGradient>
<linearGradient id="paint63_linear_38_4277" x1="193.38" y1="117.129" x2="193.38" y2="199.356" gradientUnits="userSpaceOnUse">
<stop stop-color="#ACBDDE"/>
<stop offset="0.5" stop-color="#6D7E9D"/>
<stop offset="1" stop-color="#2E405C"/>
</linearGradient>
<linearGradient id="paint64_linear_38_4277" x1="198.058" y1="117.129" x2="198.058" y2="199.356" gradientUnits="userSpaceOnUse">
<stop stop-color="#ACBDDE"/>
<stop offset="0.5" stop-color="#6D7E9D"/>
<stop offset="1" stop-color="#2E405C"/>
</linearGradient>
<linearGradient id="paint65_linear_38_4277" x1="203.672" y1="117.129" x2="203.672" y2="199.356" gradientUnits="userSpaceOnUse">
<stop stop-color="#ACBDDE"/>
<stop offset="0.5" stop-color="#6D7E9D"/>
<stop offset="1" stop-color="#2E405C"/>
</linearGradient>
<linearGradient id="paint66_linear_38_4277" x1="213.029" y1="110.911" x2="213.029" y2="-3.14864" gradientUnits="userSpaceOnUse">
<stop stop-color="#79D985"/>
<stop offset="0.5" stop-color="#3DAA7B"/>
<stop offset="1" stop-color="#027A71"/>
</linearGradient>
<linearGradient id="paint67_linear_38_4277" x1="182.62" y1="132.783" x2="182.62" y2="5.3691" gradientUnits="userSpaceOnUse">
<stop stop-color="#79D985"/>
<stop offset="0.5" stop-color="#3DAA7B"/>
<stop offset="1" stop-color="#027A71"/>
</linearGradient>
<linearGradient id="paint68_linear_38_4277" x1="213.029" y1="78.1029" x2="213.029" y2="-26.1186" gradientUnits="userSpaceOnUse">
<stop stop-color="#79D985"/>
<stop offset="0.5" stop-color="#3DAA7B"/>
<stop offset="1" stop-color="#027A71"/>
</linearGradient>
<linearGradient id="paint69_linear_38_4277" x1="207.415" y1="30.7925" x2="207.415" y2="48.5289" gradientUnits="userSpaceOnUse">
<stop stop-color="#FFEFA4"/>
<stop offset="0.5" stop-color="#FEBF53"/>
<stop offset="1" stop-color="#FE8F01"/>
</linearGradient>
<linearGradient id="paint70_linear_38_4277" x1="249.988" y1="46.9588" x2="208.112" y2="36.5273" gradientUnits="userSpaceOnUse">
<stop stop-color="white"/>
<stop offset="0.5" stop-color="#D6DEEF"/>
<stop offset="1" stop-color="#AEBDDF"/>
</linearGradient>
<linearGradient id="paint71_linear_38_4277" x1="249.52" y1="49.3362" x2="207.644" y2="38.9047" gradientUnits="userSpaceOnUse">
<stop stop-color="white"/>
<stop offset="0.5" stop-color="#D6DEEF"/>
<stop offset="1" stop-color="#AEBDDF"/>
</linearGradient>
<linearGradient id="paint72_linear_38_4277" x1="207.415" y1="49.336" x2="207.415" y2="67.0729" gradientUnits="userSpaceOnUse">
<stop stop-color="#FFEFA4"/>
<stop offset="0.5" stop-color="#FEBF53"/>
<stop offset="1" stop-color="#FE8F01"/>
</linearGradient>
<linearGradient id="paint73_linear_38_4277" x1="249.988" y1="65.5025" x2="208.112" y2="55.071" gradientUnits="userSpaceOnUse">
<stop stop-color="white"/>
<stop offset="0.5" stop-color="#D6DEEF"/>
<stop offset="1" stop-color="#AEBDDF"/>
</linearGradient>
<linearGradient id="paint74_linear_38_4277" x1="249.52" y1="67.8799" x2="207.644" y2="57.4484" gradientUnits="userSpaceOnUse">
<stop stop-color="white"/>
<stop offset="0.5" stop-color="#D6DEEF"/>
<stop offset="1" stop-color="#AEBDDF"/>
</linearGradient>
<linearGradient id="paint75_linear_38_4277" x1="207.415" y1="68.3555" x2="207.415" y2="86.0923" gradientUnits="userSpaceOnUse">
<stop stop-color="#FFEFA4"/>
<stop offset="0.5" stop-color="#FEBF53"/>
<stop offset="1" stop-color="#FE8F01"/>
</linearGradient>
<linearGradient id="paint76_linear_38_4277" x1="249.988" y1="84.5217" x2="208.112" y2="74.0907" gradientUnits="userSpaceOnUse">
<stop stop-color="white"/>
<stop offset="0.5" stop-color="#D6DEEF"/>
<stop offset="1" stop-color="#AEBDDF"/>
</linearGradient>
<linearGradient id="paint77_linear_38_4277" x1="249.52" y1="86.8991" x2="207.644" y2="76.4681" gradientUnits="userSpaceOnUse">
<stop stop-color="white"/>
<stop offset="0.5" stop-color="#D6DEEF"/>
<stop offset="1" stop-color="#AEBDDF"/>
</linearGradient>
<linearGradient id="paint78_linear_38_4277" x1="207.415" y1="86.8989" x2="207.415" y2="104.636" gradientUnits="userSpaceOnUse">
<stop stop-color="#FFEFA4"/>
<stop offset="0.5" stop-color="#FEBF53"/>
<stop offset="1" stop-color="#FE8F01"/>
</linearGradient>
<linearGradient id="paint79_linear_38_4277" x1="249.988" y1="103.065" x2="208.112" y2="92.6344" gradientUnits="userSpaceOnUse">
<stop stop-color="white"/>
<stop offset="0.5" stop-color="#D6DEEF"/>
<stop offset="1" stop-color="#AEBDDF"/>
</linearGradient>
<linearGradient id="paint80_linear_38_4277" x1="249.52" y1="105.443" x2="207.644" y2="95.0118" gradientUnits="userSpaceOnUse">
<stop stop-color="white"/>
<stop offset="0.5" stop-color="#D6DEEF"/>
<stop offset="1" stop-color="#AEBDDF"/>
</linearGradient>
<linearGradient id="paint81_linear_38_4277" x1="207.415" y1="105.919" x2="207.415" y2="123.655" gradientUnits="userSpaceOnUse">
<stop stop-color="#FFEFA4"/>
<stop offset="0.5" stop-color="#FEBF53"/>
<stop offset="1" stop-color="#FE8F01"/>
</linearGradient>
<linearGradient id="paint82_linear_38_4277" x1="249.988" y1="121.609" x2="208.112" y2="111.178" gradientUnits="userSpaceOnUse">
<stop stop-color="white"/>
<stop offset="0.5" stop-color="#D6DEEF"/>
<stop offset="1" stop-color="#AEBDDF"/>
</linearGradient>
<linearGradient id="paint83_linear_38_4277" x1="249.52" y1="123.987" x2="207.644" y2="113.556" gradientUnits="userSpaceOnUse">
<stop stop-color="white"/>
<stop offset="0.5" stop-color="#D6DEEF"/>
<stop offset="1" stop-color="#AEBDDF"/>
</linearGradient>
<linearGradient id="paint84_linear_38_4277" x1="207.415" y1="124.462" x2="207.415" y2="142.198" gradientUnits="userSpaceOnUse">
<stop stop-color="#FFEFA4"/>
<stop offset="0.5" stop-color="#FEBF53"/>
<stop offset="1" stop-color="#FE8F01"/>
</linearGradient>
<linearGradient id="paint85_linear_38_4277" x1="249.988" y1="140.628" x2="208.112" y2="130.197" gradientUnits="userSpaceOnUse">
<stop stop-color="white"/>
<stop offset="0.5" stop-color="#D6DEEF"/>
<stop offset="1" stop-color="#AEBDDF"/>
</linearGradient>
<linearGradient id="paint86_linear_38_4277" x1="249.52" y1="143.006" x2="207.644" y2="132.574" gradientUnits="userSpaceOnUse">
<stop stop-color="white"/>
<stop offset="0.5" stop-color="#D6DEEF"/>
<stop offset="1" stop-color="#AEBDDF"/>
</linearGradient>
<linearGradient id="paint87_linear_38_4277" x1="207.415" y1="143.006" x2="207.415" y2="160.743" gradientUnits="userSpaceOnUse">
<stop stop-color="#FFEFA4"/>
<stop offset="0.5" stop-color="#FEBF53"/>
<stop offset="1" stop-color="#FE8F01"/>
</linearGradient>
<linearGradient id="paint88_linear_38_4277" x1="249.988" y1="159.172" x2="208.112" y2="148.741" gradientUnits="userSpaceOnUse">
<stop stop-color="white"/>
<stop offset="0.5" stop-color="#D6DEEF"/>
<stop offset="1" stop-color="#AEBDDF"/>
</linearGradient>
<linearGradient id="paint89_linear_38_4277" x1="249.52" y1="161.55" x2="207.644" y2="151.118" gradientUnits="userSpaceOnUse">
<stop stop-color="white"/>
<stop offset="0.5" stop-color="#D6DEEF"/>
<stop offset="1" stop-color="#AEBDDF"/>
</linearGradient>
<linearGradient id="paint90_linear_38_4277" x1="307.064" y1="14.7842" x2="307.064" y2="111.694" gradientUnits="userSpaceOnUse">
<stop stop-color="white"/>
<stop offset="0.5" stop-color="#D6DEEF"/>
<stop offset="1" stop-color="#AEBDDF"/>
</linearGradient>
<linearGradient id="paint91_linear_38_4277" x1="284.608" y1="91.151" x2="284.608" y2="82.7963" gradientUnits="userSpaceOnUse">
<stop stop-color="#FFEFA4"/>
<stop offset="0.5" stop-color="#FEBF53"/>
<stop offset="1" stop-color="#FE8F01"/>
</linearGradient>
<linearGradient id="paint92_linear_38_4277" x1="284.608" y1="86.8716" x2="284.608" y2="77.789" gradientUnits="userSpaceOnUse">
<stop stop-color="#FFEFA4"/>
<stop offset="0.5" stop-color="#FEBF53"/>
<stop offset="1" stop-color="#FE8F01"/>
</linearGradient>
<linearGradient id="paint93_linear_38_4277" x1="325.31" y1="93.5284" x2="240.907" y2="69.2311" gradientUnits="userSpaceOnUse">
<stop stop-color="white"/>
<stop offset="0.5" stop-color="#D6DEEF"/>
<stop offset="1" stop-color="#AEBDDF"/>
</linearGradient>
<linearGradient id="paint94_linear_38_4277" x1="323.906" y1="98.7587" x2="239.504" y2="74.4614" gradientUnits="userSpaceOnUse">
<stop stop-color="white"/>
<stop offset="0.5" stop-color="#D6DEEF"/>
<stop offset="1" stop-color="#AEBDDF"/>
</linearGradient>
<linearGradient id="paint95_linear_38_4277" x1="250.456" y1="-56.0622" x2="250.456" y2="40.8478" gradientUnits="userSpaceOnUse">
<stop stop-color="white"/>
<stop offset="0.5" stop-color="#D6DEEF"/>
<stop offset="1" stop-color="#AEBDDF"/>
</linearGradient>
<linearGradient id="paint96_linear_38_4277" x1="228" y1="20.3048" x2="228" y2="11.9501" gradientUnits="userSpaceOnUse">
<stop stop-color="#FFEFA4"/>
<stop offset="0.5" stop-color="#FEBF53"/>
<stop offset="1" stop-color="#FE8F01"/>
</linearGradient>
<linearGradient id="paint97_linear_38_4277" x1="228" y1="16.0255" x2="228" y2="6.94283" gradientUnits="userSpaceOnUse">
<stop stop-color="#FFEFA4"/>
<stop offset="0.5" stop-color="#FEBF53"/>
<stop offset="1" stop-color="#FE8F01"/>
</linearGradient>
<linearGradient id="paint98_linear_38_4277" x1="268.702" y1="22.682" x2="184.299" y2="-1.61529" gradientUnits="userSpaceOnUse">
<stop stop-color="white"/>
<stop offset="0.5" stop-color="#D6DEEF"/>
<stop offset="1" stop-color="#AEBDDF"/>
</linearGradient>
<linearGradient id="paint99_linear_38_4277" x1="267.298" y1="27.9123" x2="182.895" y2="3.615" gradientUnits="userSpaceOnUse">
<stop stop-color="white"/>
<stop offset="0.5" stop-color="#D6DEEF"/>
<stop offset="1" stop-color="#AEBDDF"/>
</linearGradient>
<linearGradient id="paint100_linear_38_4277" x1="158.292" y1="129.016" x2="126.613" y2="126.659" gradientUnits="userSpaceOnUse">
<stop stop-color="white"/>
<stop offset="0.5" stop-color="#D6DEEF"/>
<stop offset="1" stop-color="#AEBDDF"/>
</linearGradient>
<linearGradient id="paint101_linear_38_4277" x1="115.251" y1="114.751" x2="130.098" y2="130.97" gradientUnits="userSpaceOnUse">
<stop stop-color="#ACBDDE"/>
<stop offset="0.5" stop-color="#6D7E9D"/>
<stop offset="1" stop-color="#2E405C"/>
</linearGradient>
<linearGradient id="paint102_linear_38_4277" x1="125.543" y1="120.932" x2="125.543" y2="147.593" gradientUnits="userSpaceOnUse">
<stop stop-color="#ACBDDE"/>
<stop offset="0.5" stop-color="#6D7E9D"/>
<stop offset="1" stop-color="#2E405C"/>
</linearGradient>
<linearGradient id="paint103_linear_38_4277" x1="104.959" y1="80.0413" x2="124.821" y2="125.167" gradientUnits="userSpaceOnUse">
<stop stop-color="#ACBDDE"/>
<stop offset="0.5" stop-color="#6D7E9D"/>
<stop offset="1" stop-color="#2E405C"/>
</linearGradient>
<linearGradient id="paint104_linear_38_4277" x1="108.233" y1="79.0901" x2="128.095" y2="124.216" gradientUnits="userSpaceOnUse">
<stop stop-color="#ACBDDE"/>
<stop offset="0.5" stop-color="#6D7E9D"/>
<stop offset="1" stop-color="#2E405C"/>
</linearGradient>
<linearGradient id="paint105_linear_38_4277" x1="122.268" y1="116.178" x2="126.926" y2="126.759" gradientUnits="userSpaceOnUse">
<stop stop-color="#ACBDDE"/>
<stop offset="0.5" stop-color="#6D7E9D"/>
<stop offset="1" stop-color="#2E405C"/>
</linearGradient>
<linearGradient id="paint106_linear_38_4277" x1="106.362" y1="76.7128" x2="109.384" y2="83.5791" gradientUnits="userSpaceOnUse">
<stop stop-color="#ACBDDE"/>
<stop offset="0.5" stop-color="#6D7E9D"/>
<stop offset="1" stop-color="#2E405C"/>
</linearGradient>
<linearGradient id="paint107_linear_38_4277" x1="505.187" y1="-206.939" x2="478.665" y2="-201.263" gradientUnits="userSpaceOnUse">
<stop stop-color="#ACBDDE"/>
<stop offset="0.5" stop-color="#6D7E9D"/>
<stop offset="1" stop-color="#2E405C"/>
</linearGradient>
<linearGradient id="paint108_linear_38_4277" x1="127.883" y1="51.9879" x2="127.883" y2="81.9589" gradientUnits="userSpaceOnUse">
<stop stop-color="#ACBDDE"/>
<stop offset="0.5" stop-color="#6D7E9D"/>
<stop offset="1" stop-color="#2E405C"/>
</linearGradient>
<linearGradient id="paint109_linear_38_4277" x1="134.9" y1="58.1692" x2="134.9" y2="91.7048" gradientUnits="userSpaceOnUse">
<stop stop-color="#ACBDDE"/>
<stop offset="0.5" stop-color="#6D7E9D"/>
<stop offset="1" stop-color="#2E405C"/>
</linearGradient>
<linearGradient id="paint110_linear_38_4277" x1="177.005" y1="74.3355" x2="135.952" y2="74.3355" gradientUnits="userSpaceOnUse">
<stop stop-color="#ACBDDE"/>
<stop offset="0.5" stop-color="#6D7E9D"/>
<stop offset="1" stop-color="#2E405C"/>
</linearGradient>
<linearGradient id="paint111_linear_38_4277" x1="142.853" y1="73.3845" x2="133.476" y2="73.3845" gradientUnits="userSpaceOnUse">
<stop stop-color="#FFEFA4"/>
<stop offset="0.5" stop-color="#FEBF53"/>
<stop offset="1" stop-color="#FE8F01"/>
</linearGradient>
<linearGradient id="paint112_linear_38_4277" x1="287.883" y1="147.559" x2="278.84" y2="171.089" gradientUnits="userSpaceOnUse">
<stop stop-color="white"/>
<stop offset="0.5" stop-color="#D6DEEF"/>
<stop offset="1" stop-color="#AEBDDF"/>
</linearGradient>
<linearGradient id="paint113_linear_38_4277" x1="264.491" y1="161.348" x2="296.923" y2="160.342" gradientUnits="userSpaceOnUse">
<stop stop-color="#ACBDDE"/>
<stop offset="0.5" stop-color="#6D7E9D"/>
<stop offset="1" stop-color="#2E405C"/>
</linearGradient>
<linearGradient id="paint114_linear_38_4277" x1="271.976" y1="171.333" x2="268.238" y2="166.904" gradientUnits="userSpaceOnUse">
<stop stop-color="#ACBDDE" stop-opacity="0"/>
<stop offset="0.5" stop-color="#6D7E9D" stop-opacity="0.5"/>
<stop offset="1" stop-color="#2E405C"/>
</linearGradient>
<linearGradient id="paint115_linear_38_4277" x1="271.976" y1="158.971" x2="268.238" y2="154.541" gradientUnits="userSpaceOnUse">
<stop stop-color="#ACBDDE" stop-opacity="0"/>
<stop offset="0.5" stop-color="#6D7E9D" stop-opacity="0.5"/>
<stop offset="1" stop-color="#2E405C"/>
</linearGradient>
<linearGradient id="paint116_linear_38_4277" x1="284.14" y1="149.937" x2="261.284" y2="149.937" gradientUnits="userSpaceOnUse">
<stop stop-color="#ACBDDE"/>
<stop offset="0.5" stop-color="#6D7E9D"/>
<stop offset="1" stop-color="#2E405C"/>
</linearGradient>
<linearGradient id="paint117_linear_38_4277" x1="276.655" y1="148.51" x2="276.655" y2="155.085" gradientUnits="userSpaceOnUse">
<stop stop-color="#FFEFA4"/>
<stop offset="0.5" stop-color="#FEBF53"/>
<stop offset="1" stop-color="#FE8F01"/>
</linearGradient>
<linearGradient id="paint118_linear_38_4277" x1="234.984" y1="169.431" x2="234.984" y2="185.11" gradientUnits="userSpaceOnUse">
<stop stop-color="#2E405C"/>
<stop offset="0.5" stop-color="#40526E"/>
<stop offset="1" stop-color="#526381"/>
</linearGradient>
<linearGradient id="paint119_linear_38_4277" x1="111.781" y1="319.983" x2="112.367" y2="288.819" gradientUnits="userSpaceOnUse">
<stop stop-color="white"/>
<stop offset="0.5" stop-color="#D6DEEF"/>
<stop offset="1" stop-color="#AEBDDF"/>
</linearGradient>
<linearGradient id="paint120_linear_38_4277" x1="312.043" y1="281.414" x2="75.4374" y2="248.176" gradientUnits="userSpaceOnUse">
<stop stop-color="#ACBDDE"/>
<stop offset="0.5" stop-color="#6D7E9D"/>
<stop offset="1" stop-color="#2E405C"/>
</linearGradient>
<linearGradient id="paint121_linear_38_4277" x1="110.86" y1="303.326" x2="108.548" y2="321.234" gradientUnits="userSpaceOnUse">
<stop stop-color="white"/>
<stop offset="0.5" stop-color="#D6DEEF"/>
<stop offset="1" stop-color="#AEBDDF"/>
</linearGradient>
<linearGradient id="paint122_linear_38_4277" x1="184.95" y1="94.5142" x2="99.3759" y2="130.993" gradientUnits="userSpaceOnUse">
<stop stop-color="#FFEFA4"/>
<stop offset="0.5" stop-color="#FEBF53"/>
<stop offset="1" stop-color="#FE8F01"/>
</linearGradient>
<linearGradient id="paint123_linear_38_4277" x1="190.027" y1="125.793" x2="125.931" y2="148.112" gradientUnits="userSpaceOnUse">
<stop stop-color="#FFD2BB"/>
<stop offset="0.5" stop-color="#FF9F8A"/>
<stop offset="1" stop-color="#FF6B5A"/>
</linearGradient>
<linearGradient id="paint124_linear_38_4277" x1="192.66" y1="117.8" x2="110" y2="155.516" gradientUnits="userSpaceOnUse">
<stop stop-color="#FFEFA4"/>
<stop offset="0.5" stop-color="#FEBF53"/>
<stop offset="1" stop-color="#FE8F01"/>
</linearGradient>
<linearGradient id="paint125_linear_38_4277" x1="100.79" y1="40.678" x2="68.847" y2="113.634" gradientUnits="userSpaceOnUse">
<stop stop-color="#FFD2BB"/>
<stop offset="0.5" stop-color="#FF9F8A"/>
<stop offset="1" stop-color="#FF6B5A"/>
</linearGradient>
<linearGradient id="paint126_linear_38_4277" x1="95.7453" y1="9.22151" x2="78.2403" y2="86.006" gradientUnits="userSpaceOnUse">
<stop stop-color="#95ADDB"/>
<stop offset="0.5" stop-color="#6D7E9D"/>
<stop offset="1" stop-color="#2E405C"/>
</linearGradient>
<linearGradient id="paint127_linear_38_4277" x1="201.333" y1="335.374" x2="50.2056" y2="335.374" gradientUnits="userSpaceOnUse">
<stop stop-color="white"/>
<stop offset="0.5" stop-color="#D6DEEF"/>
<stop offset="1" stop-color="#AEBDDF"/>
</linearGradient>
<linearGradient id="paint128_linear_38_4277" x1="52.5607" y1="338.227" x2="302.036" y2="338.227" gradientUnits="userSpaceOnUse">
<stop stop-color="white"/>
<stop offset="0.5" stop-color="#D6DEEF"/>
<stop offset="1" stop-color="#AEBDDF"/>
</linearGradient>
<linearGradient id="paint129_linear_38_4277" x1="87.1806" y1="302.09" x2="87.1806" y2="378.002" gradientUnits="userSpaceOnUse">
<stop stop-color="white"/>
<stop offset="0.5" stop-color="#D6DEEF"/>
<stop offset="1" stop-color="#AEBDDF"/>
</linearGradient>
<linearGradient id="paint130_linear_38_4277" x1="87.1806" y1="226.489" x2="87.1806" y2="353.175" gradientUnits="userSpaceOnUse">
<stop stop-color="white"/>
<stop offset="0.5" stop-color="#D6DEEF"/>
<stop offset="1" stop-color="#AEBDDF"/>
</linearGradient>
<linearGradient id="paint131_linear_38_4277" x1="92.3268" y1="169.431" x2="98.9814" y2="228.358" gradientUnits="userSpaceOnUse">
<stop stop-color="white"/>
<stop offset="0.5" stop-color="#D6DEEF"/>
<stop offset="1" stop-color="#AEBDDF"/>
</linearGradient>
<linearGradient id="paint132_linear_38_4277" x1="229.871" y1="326.34" x2="172.465" y2="326.34" gradientUnits="userSpaceOnUse">
<stop stop-color="white"/>
<stop offset="0.5" stop-color="#D6DEEF"/>
<stop offset="1" stop-color="#AEBDDF"/>
</linearGradient>
<linearGradient id="paint133_linear_38_4277" x1="301.918" y1="201.289" x2="89.5292" y2="201.289" gradientUnits="userSpaceOnUse">
<stop stop-color="#ACBDDE"/>
<stop offset="0.5" stop-color="#6D7E9D"/>
<stop offset="1" stop-color="#2E405C"/>
</linearGradient>
<linearGradient id="paint134_linear_38_4277" x1="177.697" y1="334.217" x2="180.598" y2="272.175" gradientUnits="userSpaceOnUse">
<stop stop-color="white"/>
<stop offset="0.5" stop-color="#D6DEEF"/>
<stop offset="1" stop-color="#AEBDDF"/>
</linearGradient>
<linearGradient id="paint135_linear_38_4277" x1="199.367" y1="278.075" x2="192.847" y2="334.528" gradientUnits="userSpaceOnUse">
<stop stop-color="white"/>
<stop offset="0.5" stop-color="#D6DEEF"/>
<stop offset="1" stop-color="#AEBDDF"/>
</linearGradient>
<linearGradient id="paint136_linear_38_4277" x1="261.684" y1="246.935" x2="67.5445" y2="246.935" gradientUnits="userSpaceOnUse">
<stop stop-color="#ACBDDE"/>
<stop offset="0.5" stop-color="#6D7E9D"/>
<stop offset="1" stop-color="#2E405C"/>
</linearGradient>
<linearGradient id="paint137_linear_38_4277" x1="77.356" y1="120.457" x2="77.356" y2="67.4038" gradientUnits="userSpaceOnUse">
<stop stop-color="#ACBDDE"/>
<stop offset="0.5" stop-color="#6D7E9D"/>
<stop offset="1" stop-color="#2E405C"/>
</linearGradient>
<linearGradient id="paint138_linear_38_4277" x1="75.4847" y1="209.372" x2="75.4847" y2="19.4363" gradientUnits="userSpaceOnUse">
<stop stop-color="#FFEFA4"/>
<stop offset="0.5" stop-color="#FEBF53"/>
<stop offset="1" stop-color="#FE8F01"/>
</linearGradient>
<linearGradient id="paint139_linear_38_4277" x1="50.2215" y1="137.099" x2="50.2215" y2="228.639" gradientUnits="userSpaceOnUse">
<stop stop-color="white"/>
<stop offset="0.5" stop-color="#D6DEEF"/>
<stop offset="1" stop-color="#AEBDDF"/>
</linearGradient>
<linearGradient id="paint140_linear_38_4277" x1="99.8123" y1="190.352" x2="99.8123" y2="320.967" gradientUnits="userSpaceOnUse">
<stop stop-color="white"/>
<stop offset="0.5" stop-color="#D6DEEF"/>
<stop offset="1" stop-color="#AEBDDF"/>
</linearGradient>
<linearGradient id="paint141_linear_38_4277" x1="198.201" y1="154.318" x2="188.365" y2="157.947" gradientUnits="userSpaceOnUse">
<stop stop-color="#FFD2BB"/>
<stop offset="0.5" stop-color="#FF9F8A"/>
<stop offset="1" stop-color="#FF6B5A"/>
</linearGradient>
<linearGradient id="paint142_linear_38_4277" x1="202.859" y1="149.785" x2="157.276" y2="164.145" gradientUnits="userSpaceOnUse">
<stop stop-color="#FFD2BB"/>
<stop offset="0.5" stop-color="#FF9F8A"/>
<stop offset="1" stop-color="#FF6B5A"/>
</linearGradient>
<linearGradient id="paint143_linear_38_4277" x1="136.207" y1="214.503" x2="187.365" y2="56.7474" gradientUnits="userSpaceOnUse">
<stop stop-color="#FFEFA4"/>
<stop offset="0.5" stop-color="#FEBF53"/>
<stop offset="1" stop-color="#FE8F01"/>
</linearGradient>
<linearGradient id="paint144_linear_38_4277" x1="97.7765" y1="205.619" x2="150.614" y2="41.3483" gradientUnits="userSpaceOnUse">
<stop stop-color="#FFEFA4"/>
<stop offset="0.5" stop-color="#FEBF53"/>
<stop offset="1" stop-color="#F09016"/>
</linearGradient>
<linearGradient id="paint145_linear_38_4277" x1="298.643" y1="372.937" x2="272.354" y2="345.849" gradientUnits="userSpaceOnUse">
<stop stop-color="white"/>
<stop offset="0.5" stop-color="#D6DEEF"/>
<stop offset="1" stop-color="#AEBDDF"/>
</linearGradient>
<linearGradient id="paint146_linear_38_4277" x1="225.193" y1="315.88" x2="318.693" y2="312.979" gradientUnits="userSpaceOnUse">
<stop stop-color="white"/>
<stop offset="0.5" stop-color="#D6DEEF"/>
<stop offset="1" stop-color="#AEBDDF"/>
</linearGradient>
<linearGradient id="paint147_linear_38_4277" x1="281.333" y1="283.071" x2="215.414" y2="283.071" gradientUnits="userSpaceOnUse">
<stop stop-color="#ACBDDE"/>
<stop offset="0.5" stop-color="#6D7E9D"/>
<stop offset="1" stop-color="#2E405C"/>
</linearGradient>
<linearGradient id="paint148_linear_38_4277" x1="259.345" y1="256.92" x2="259.345" y2="290.136" gradientUnits="userSpaceOnUse">
<stop stop-color="#ACBDDE"/>
<stop offset="0.5" stop-color="#6D7E9D"/>
<stop offset="1" stop-color="#2E405C"/>
</linearGradient>
<linearGradient id="paint149_linear_38_4277" x1="302.446" y1="284.547" x2="299.627" y2="231.925" gradientUnits="userSpaceOnUse">
<stop stop-color="#79D985"/>
<stop offset="0.5" stop-color="#3DAA7B"/>
<stop offset="1" stop-color="#027A71"/>
</linearGradient>
<linearGradient id="paint150_linear_38_4277" x1="206.91" y1="309.591" x2="224.118" y2="252.05" gradientUnits="userSpaceOnUse">
<stop stop-color="#79D985"/>
<stop offset="0.5" stop-color="#3DAA7B"/>
<stop offset="1" stop-color="#027A71"/>
</linearGradient>
<linearGradient id="paint151_linear_38_4277" x1="175.648" y1="88.2644" x2="267.878" y2="266.489" gradientUnits="userSpaceOnUse">
<stop stop-color="#79D985"/>
<stop offset="0.5" stop-color="#3DAA7B"/>
<stop offset="1" stop-color="#027A71"/>
</linearGradient>
<linearGradient id="paint152_linear_38_4277" x1="171.242" y1="159.111" x2="258.17" y2="272.977" gradientUnits="userSpaceOnUse">
<stop stop-color="#79D985"/>
<stop offset="0.5" stop-color="#3DAA7B"/>
<stop offset="1" stop-color="#027A71"/>
</linearGradient>
<linearGradient id="paint153_linear_38_4277" x1="358.557" y1="159.074" x2="274.36" y2="228.819" gradientUnits="userSpaceOnUse">
<stop stop-color="#79D985"/>
<stop offset="0.5" stop-color="#3DAA7B"/>
<stop offset="1" stop-color="#027A71"/>
</linearGradient>
<linearGradient id="paint154_linear_38_4277" x1="343.275" y1="156.471" x2="267.392" y2="280.762" gradientUnits="userSpaceOnUse">
<stop stop-color="#79D985"/>
<stop offset="0.5" stop-color="#3DAA7B"/>
<stop offset="1" stop-color="#027A71"/>
</linearGradient>
</defs>
</svg>
