<svg width="350" height="352" viewBox="0 0 350 352" fill="none" xmlns="http://www.w3.org/2000/svg">
<g opacity="0.299998">
<path d="M296.763 141.069C324.307 141.069 350 118.16 350 91.043C350 63.9261 325.115 39.1621 297.57 39.1621C270.026 39.1621 245.141 61.2756 245.141 88.3926C245.141 115.51 269.218 141.069 296.763 141.069Z" fill="#92EEC2"/>
</g>
<g opacity="0.999992">
<path d="M88.0271 352C135.162 352 172.028 314.914 172.028 268.511C172.028 222.107 133.552 184.493 86.4166 184.493C39.2815 184.493 0 224.485 0 270.889C0 317.292 40.892 352 88.0271 352Z" fill="#92EEC2"/>
</g>
<path d="M265.32 126.544V65.4433L200.876 2H70.8623V271.044H265.32V193.99" stroke="#F49020" stroke-width="3" stroke-linecap="round" stroke-linejoin="round"/>
<path d="M265.319 65.4433H200.876V2" stroke="#F49020" stroke-width="3" stroke-linecap="round" stroke-linejoin="round"/>
<path d="M171.531 59.5286H149.698" stroke="#F49020" stroke-width="3" stroke-linecap="round" stroke-linejoin="round"/>
<path d="M121.418 47.8877H97.769V71.1695H121.418V47.8877Z" stroke="#F49020" stroke-width="3" stroke-linecap="round" stroke-linejoin="round"/>
<path d="M190.428 164.242H149.698" stroke="#F49020" stroke-width="3" stroke-linecap="round" stroke-linejoin="round"/>
<path d="M121.418 152.601H97.769V175.883H121.418V152.601Z" stroke="#F49020" stroke-width="3" stroke-linecap="round" stroke-linejoin="round"/>
<path d="M121.418 208.034H97.769V231.316H121.418V208.034Z" stroke="#F49020" stroke-width="3" stroke-linecap="round" stroke-linejoin="round"/>
<path d="M231.22 112.192H149.695" stroke="#F49020" stroke-width="3" stroke-linecap="round" stroke-linejoin="round"/>
<path d="M129.301 96.7322L105.652 119.956L97.769 112.192" stroke="#F49020" stroke-width="3" stroke-linecap="round" stroke-linejoin="round"/>
<path d="M328.135 128.333L248.616 206.618C247.61 207.634 246.451 208.486 245.175 209.146L203.316 219.678L214.015 178.533C214.659 177.261 215.505 176.095 216.517 175.082L296.102 96.7968C297.329 95.576 298.791 94.6052 300.402 93.9419C302.013 93.2786 303.744 92.939 305.489 92.939C307.233 92.939 308.962 93.2786 310.573 93.9419C312.184 94.6052 313.645 95.576 314.872 96.7968L328.135 109.854C329.369 111.065 330.348 112.507 331.016 114.093C331.683 115.679 332.028 117.374 332.028 119.092C332.028 120.809 331.683 122.507 331.016 124.093C330.348 125.68 329.369 127.121 328.135 128.333Z" stroke="#F49020" stroke-width="3" stroke-linecap="round" stroke-linejoin="round"/>
<path d="M205.504 219.678C205.504 219.678 162.405 219.678 151.957 219.678" stroke="#F49020" stroke-width="3" stroke-linecap="round" stroke-linejoin="round"/>
</svg>
