<svg width="254" height="340" viewBox="0 0 254 340" fill="none" xmlns="http://www.w3.org/2000/svg">
<path d="M203.621 0H49.8756C35.9768 0 24.709 9.76954 24.709 21.8203V318.18C24.709 330.231 35.9768 340 49.8756 340H203.621C217.52 340 228.788 330.231 228.788 318.18V21.8203C228.788 9.76954 217.52 0 203.621 0Z" fill="#C2C1C1"/>
<path d="M32.4878 298.74H221.009V28.9614H32.4878V298.74Z" fill="white"/>
<path d="M140.018 318.576C140.018 324.492 134.487 329.288 127.663 329.288C120.84 329.288 115.309 324.492 115.309 318.576C115.309 312.66 120.84 307.865 127.663 307.865C134.487 307.865 140.018 312.66 140.018 318.576Z" fill="#EEEEEE"/>
<path d="M130.423 18.0513H110.49C108.603 18.0513 107.073 16.7247 107.073 15.0885V15.0631C107.073 13.427 108.603 12.1003 110.49 12.1003H130.423C132.311 12.1003 133.841 13.427 133.841 15.0631V15.0885C133.841 16.7247 132.311 18.0513 130.423 18.0513Z" fill="#EEEEEE"/>
<path d="M147.339 15.2743C147.339 16.9176 145.803 18.2498 143.907 18.2498C142.012 18.2498 140.475 16.9176 140.475 15.2743C140.475 13.6311 142.012 12.2988 143.907 12.2988C145.803 12.2988 147.339 13.6311 147.339 15.2743Z" fill="#EEEEEE"/>
<g opacity="0.7">
<path d="M236.874 190.042H16.6227C7.48023 190.042 0 183.556 0 175.63V114.977C0 107.05 7.48023 100.565 16.6227 100.565H236.874C246.016 100.565 253.497 107.05 253.497 114.977V175.63C253.497 183.556 246.016 190.042 236.874 190.042Z" fill="#7ED321"/>
</g>
<path d="M210.705 173.828H19.5163C16.7698 173.828 14.5226 171.936 14.5226 169.624C14.5226 167.312 16.7698 165.421 19.5163 165.421H210.705C213.452 165.421 215.699 167.312 215.699 169.624C215.699 171.936 213.452 173.828 210.705 173.828Z" fill="#EEEEEE"/>
<path d="M185.988 154.611H18.9295C16.5296 154.611 14.566 152.72 14.566 150.408C14.566 148.096 16.5296 146.204 18.9295 146.204H185.988C188.388 146.204 190.351 148.096 190.351 150.408C190.351 152.72 188.388 154.611 185.988 154.611Z" fill="#EEEEEE"/>
<path d="M139.561 127.588H63.374C59.7551 127.588 56.7942 125.021 56.7942 121.883C56.7942 118.745 59.7551 116.178 63.374 116.178H139.561C143.18 116.178 146.141 118.745 146.141 121.883C146.141 125.021 143.18 127.588 139.561 127.588Z" fill="#EEEEEE"/>
<path d="M45.7125 123.084C45.7125 130.546 38.7351 136.596 30.1287 136.596C21.5222 136.596 14.5448 130.546 14.5448 123.084C14.5448 115.622 21.5222 109.572 30.1287 109.572C38.7351 109.572 45.7125 115.622 45.7125 123.084Z" fill="#EEEEEE"/>
</svg>
